{
	"patcher" : 	{
		"fileversion" : 1,
		"appversion" : 		{
			"major" : 8,
			"minor" : 1,
			"revision" : 5,
			"architecture" : "x64",
			"modernui" : 1
		}
,
		"classnamespace" : "box",
		"rect" : [ 44.0, 79.0, 1362.0, 787.0 ],
		"bglocked" : 0,
		"openinpresentation" : 0,
		"default_fontsize" : 12.0,
		"default_fontface" : 0,
		"default_fontname" : "Arial",
		"gridonopen" : 1,
		"gridsize" : [ 15.0, 15.0 ],
		"gridsnaponopen" : 1,
		"objectsnaponopen" : 1,
		"statusbarvisible" : 2,
		"toolbarvisible" : 1,
		"lefttoolbarpinned" : 0,
		"toptoolbarpinned" : 0,
		"righttoolbarpinned" : 0,
		"bottomtoolbarpinned" : 0,
		"toolbars_unpinned_last_save" : 0,
		"tallnewobj" : 0,
		"boxanimatetime" : 200,
		"enablehscroll" : 1,
		"enablevscroll" : 1,
		"devicewidth" : 0.0,
		"description" : "",
		"digest" : "",
		"tags" : "",
		"style" : "",
		"subpatcher_template" : "",
		"assistshowspatchername" : 0,
		"boxes" : [ 			{
				"box" : 				{
					"id" : "obj-9",
					"maxclass" : "comment",
					"numinlets" : 1,
					"numoutlets" : 0,
					"patching_rect" : [ 942.0, 29.0, 150.0, 20.0 ],
					"text" : "drop 3 octaves"
				}

			}
, 			{
				"box" : 				{
					"id" : "obj-187",
					"linecount" : 2,
					"maxclass" : "comment",
					"numinlets" : 1,
					"numoutlets" : 0,
					"patching_rect" : [ 1168.0, 174.0, 150.0, 33.0 ],
					"text" : "in class add 9 10 11 12 to the instrument?"
				}

			}
, 			{
				"box" : 				{
					"id" : "obj-185",
					"maxclass" : "newobj",
					"numinlets" : 0,
					"numoutlets" : 1,
					"outlettype" : [ "" ],
					"patching_rect" : [ 1298.25, 272.0, 29.0, 22.0 ],
					"text" : "r ph"
				}

			}
, 			{
				"box" : 				{
					"id" : "obj-184",
					"maxclass" : "newobj",
					"numinlets" : 0,
					"numoutlets" : 1,
					"outlettype" : [ "" ],
					"patching_rect" : [ 1194.25, 272.0, 29.0, 22.0 ],
					"text" : "r ph"
				}

			}
, 			{
				"box" : 				{
					"id" : "obj-183",
					"maxclass" : "newobj",
					"numinlets" : 0,
					"numoutlets" : 1,
					"outlettype" : [ "" ],
					"patching_rect" : [ 1097.25, 272.0, 29.0, 22.0 ],
					"text" : "r ph"
				}

			}
, 			{
				"box" : 				{
					"id" : "obj-182",
					"maxclass" : "newobj",
					"numinlets" : 0,
					"numoutlets" : 1,
					"outlettype" : [ "" ],
					"patching_rect" : [ 995.75, 272.0, 29.0, 22.0 ],
					"text" : "r ph"
				}

			}
, 			{
				"box" : 				{
					"id" : "obj-181",
					"maxclass" : "newobj",
					"numinlets" : 0,
					"numoutlets" : 1,
					"outlettype" : [ "" ],
					"patching_rect" : [ 881.0, 272.0, 29.0, 22.0 ],
					"text" : "r ph"
				}

			}
, 			{
				"box" : 				{
					"id" : "obj-180",
					"maxclass" : "newobj",
					"numinlets" : 0,
					"numoutlets" : 1,
					"outlettype" : [ "" ],
					"patching_rect" : [ 780.0, 272.0, 29.0, 22.0 ],
					"text" : "r ph"
				}

			}
, 			{
				"box" : 				{
					"id" : "obj-179",
					"maxclass" : "newobj",
					"numinlets" : 0,
					"numoutlets" : 1,
					"outlettype" : [ "" ],
					"patching_rect" : [ 672.25, 272.0, 29.0, 22.0 ],
					"text" : "r ph"
				}

			}
, 			{
				"box" : 				{
					"id" : "obj-178",
					"maxclass" : "newobj",
					"numinlets" : 0,
					"numoutlets" : 1,
					"outlettype" : [ "" ],
					"patching_rect" : [ 573.25, 272.0, 29.0, 22.0 ],
					"text" : "r ph"
				}

			}
, 			{
				"box" : 				{
					"id" : "obj-177",
					"maxclass" : "message",
					"numinlets" : 2,
					"numoutlets" : 1,
					"outlettype" : [ "" ],
					"patching_rect" : [ 117.0, 23.0, 29.5, 22.0 ],
					"text" : "1"
				}

			}
, 			{
				"box" : 				{
					"id" : "obj-175",
					"maxclass" : "newobj",
					"numinlets" : 1,
					"numoutlets" : 0,
					"patching_rect" : [ 95.5, 100.5, 31.0, 22.0 ],
					"text" : "s ph"
				}

			}
, 			{
				"box" : 				{
					"id" : "obj-174",
					"maxclass" : "newobj",
					"numinlets" : 0,
					"numoutlets" : 1,
					"outlettype" : [ "" ],
					"patching_rect" : [ 468.0, 272.0, 29.0, 22.0 ],
					"text" : "r ph"
				}

			}
, 			{
				"box" : 				{
					"id" : "obj-173",
					"maxclass" : "newobj",
					"numinlets" : 0,
					"numoutlets" : 1,
					"outlettype" : [ "" ],
					"patching_rect" : [ 367.0, 272.0, 29.0, 22.0 ],
					"text" : "r ph"
				}

			}
, 			{
				"box" : 				{
					"id" : "obj-172",
					"maxclass" : "newobj",
					"numinlets" : 0,
					"numoutlets" : 1,
					"outlettype" : [ "" ],
					"patching_rect" : [ 262.0, 272.0, 29.0, 22.0 ],
					"text" : "r ph"
				}

			}
, 			{
				"box" : 				{
					"id" : "obj-171",
					"maxclass" : "newobj",
					"numinlets" : 0,
					"numoutlets" : 1,
					"outlettype" : [ "" ],
					"patching_rect" : [ 169.0, 272.0, 29.0, 22.0 ],
					"text" : "r ph"
				}

			}
, 			{
				"box" : 				{
					"id" : "obj-170",
					"maxclass" : "newobj",
					"numinlets" : 0,
					"numoutlets" : 1,
					"outlettype" : [ "" ],
					"patching_rect" : [ 68.75, 271.0, 29.0, 22.0 ],
					"text" : "r ph"
				}

			}
, 			{
				"box" : 				{
					"id" : "obj-166",
					"maxclass" : "button",
					"numinlets" : 1,
					"numoutlets" : 1,
					"outlettype" : [ "bang" ],
					"parameter_enable" : 0,
					"patching_rect" : [ 1000.75, 138.0, 24.0, 24.0 ]
				}

			}
, 			{
				"box" : 				{
					"id" : "obj-164",
					"maxclass" : "newobj",
					"numinlets" : 1,
					"numoutlets" : 3,
					"outlettype" : [ "", "int", "int" ],
					"patching_rect" : [ 1005.0, 106.0, 48.0, 22.0 ],
					"text" : "change"
				}

			}
, 			{
				"box" : 				{
					"id" : "obj-163",
					"maxclass" : "newobj",
					"numinlets" : 2,
					"numoutlets" : 1,
					"outlettype" : [ "float" ],
					"patching_rect" : [ 636.25, 138.0, 29.5, 22.0 ],
					"text" : "/ 1."
				}

			}
, 			{
				"box" : 				{
					"format" : 6,
					"id" : "obj-158",
					"maxclass" : "flonum",
					"numinlets" : 1,
					"numoutlets" : 2,
					"outlettype" : [ "", "bang" ],
					"parameter_enable" : 0,
					"patching_rect" : [ 908.0, 106.0, 50.0, 22.0 ]
				}

			}
, 			{
				"box" : 				{
					"id" : "obj-154",
					"maxclass" : "toggle",
					"numinlets" : 1,
					"numoutlets" : 1,
					"outlettype" : [ "int" ],
					"parameter_enable" : 0,
					"patching_rect" : [ 908.0, 27.0, 24.0, 24.0 ]
				}

			}
, 			{
				"box" : 				{
					"fontname" : "Arial",
					"fontsize" : 12.0,
					"id" : "obj-148",
					"maxclass" : "newobj",
					"numinlets" : 1,
					"numoutlets" : 1,
					"outlettype" : [ "" ],
					"patching_rect" : [ 908.0, 66.0, 144.0, 22.0 ],
					"text" : "if $f1 > 0. then 1. else 32."
				}

			}
, 			{
				"box" : 				{
					"format" : 6,
					"id" : "obj-146",
					"maxclass" : "flonum",
					"numinlets" : 1,
					"numoutlets" : 2,
					"outlettype" : [ "", "bang" ],
					"parameter_enable" : 0,
					"patching_rect" : [ 626.0, 181.0, 50.0, 22.0 ]
				}

			}
, 			{
				"box" : 				{
					"id" : "obj-136",
					"maxclass" : "comment",
					"numinlets" : 1,
					"numoutlets" : 0,
					"patching_rect" : [ 50.75, 548.0, 150.0, 20.0 ],
					"text" : "stereo to mono"
				}

			}
, 			{
				"box" : 				{
					"id" : "obj-134",
					"maxclass" : "newobj",
					"numinlets" : 2,
					"numoutlets" : 1,
					"outlettype" : [ "signal" ],
					"patching_rect" : [ 95.5, 615.0, 49.0, 22.0 ],
					"text" : "gate~ 1"
				}

			}
, 			{
				"box" : 				{
					"id" : "obj-131",
					"maxclass" : "toggle",
					"numinlets" : 1,
					"numoutlets" : 1,
					"outlettype" : [ "int" ],
					"parameter_enable" : 0,
					"patching_rect" : [ 20.75, 548.0, 24.0, 24.0 ]
				}

			}
, 			{
				"box" : 				{
					"id" : "obj-129",
					"maxclass" : "newobj",
					"numinlets" : 2,
					"numoutlets" : 1,
					"outlettype" : [ "signal" ],
					"patching_rect" : [ 149.0, 615.0, 49.0, 22.0 ],
					"text" : "gate~ 1"
				}

			}
, 			{
				"box" : 				{
					"id" : "obj-128",
					"maxclass" : "newobj",
					"numinlets" : 1,
					"numoutlets" : 1,
					"outlettype" : [ "" ],
					"patching_rect" : [ 439.0, 830.0, 100.0, 22.0 ]
				}

			}
, 			{
				"box" : 				{
					"id" : "obj-127",
					"lastchannelcount" : 0,
					"maxclass" : "live.gain~",
					"numinlets" : 2,
					"numoutlets" : 5,
					"orientation" : 1,
					"outlettype" : [ "signal", "signal", "", "float", "list" ],
					"parameter_enable" : 1,
					"patching_rect" : [ 80.5, 643.0, 219.0, 47.0 ],
					"saved_attribute_attributes" : 					{
						"valueof" : 						{
							"parameter_initial" : [ 0.0 ],
							"parameter_longname" : "live.gain~",
							"parameter_mmax" : 6.0,
							"parameter_mmin" : -70.0,
							"parameter_shortname" : "live.gain~",
							"parameter_type" : 0,
							"parameter_unitstyle" : 4
						}

					}
,
					"varname" : "live.gain~"
				}

			}
, 			{
				"box" : 				{
					"id" : "obj-125",
					"maxclass" : "newobj",
					"numinlets" : 1,
					"numoutlets" : 1,
					"outlettype" : [ "signal" ],
					"patching_rect" : [ 182.75, 585.0, 66.0, 22.0 ],
					"text" : "receive~ R"
				}

			}
, 			{
				"box" : 				{
					"id" : "obj-126",
					"maxclass" : "newobj",
					"numinlets" : 1,
					"numoutlets" : 1,
					"outlettype" : [ "signal" ],
					"patching_rect" : [ 80.5, 585.0, 64.0, 22.0 ],
					"text" : "receive~ L"
				}

			}
, 			{
				"box" : 				{
					"id" : "obj-124",
					"maxclass" : "newobj",
					"numinlets" : 1,
					"numoutlets" : 0,
					"patching_rect" : [ 558.0, 645.0, 54.0, 22.0 ],
					"text" : "send~ R"
				}

			}
, 			{
				"box" : 				{
					"id" : "obj-123",
					"maxclass" : "newobj",
					"numinlets" : 1,
					"numoutlets" : 0,
					"patching_rect" : [ 436.75, 645.0, 52.0, 22.0 ],
					"text" : "send~ L"
				}

			}
, 			{
				"box" : 				{
					"id" : "obj-111",
					"maxclass" : "preset",
					"numinlets" : 1,
					"numoutlets" : 4,
					"outlettype" : [ "preset", "int", "preset", "int" ],
					"patching_rect" : [ 189.0, 86.0, 235.75, 108.0 ],
					"preset_data" : [ 						{
							"number" : 1,
							"data" : [ 5, "obj-14", "toggle", "int", 0, 5, "obj-1", "kslider", "int", 36, 5, "obj-25", "toggle", "int", 0, 5, "obj-31", "toggle", "int", 1, 5, "obj-20", "flonum", "float", 30.0, 5, "obj-5", "toggle", "int", 0, 5, "obj-51", "toggle", "int", 0, 5, "obj-56", "flonum", "float", 15.0, 5, "obj-57", "flonum", "float", 30.0, 5, "obj-58", "flonum", "float", 60.0, 5, "obj-60", "flonum", "float", 90.0, 5, "obj-62", "flonum", "float", 120.0, 5, "obj-70", "toggle", "int", 0, 5, "obj-66", "flonum", "float", 10.0, 5, "obj-76", "toggle", "int", 0, 5, "obj-72", "flonum", "float", 7.5, 5, "obj-82", "toggle", "int", 0, 5, "obj-78", "flonum", "float", 6.0, 5, "obj-87", "toggle", "int", 0, 5, "obj-84", "flonum", "float", 150.0, 5, "obj-92", "toggle", "int", 0, 5, "obj-89", "flonum", "float", 180.0, 5, "obj-97", "toggle", "int", 0, 5, "obj-94", "flonum", "float", 210.0, 5, "obj-102", "toggle", "int", 0, 5, "obj-99", "flonum", "float", 240.0, 5, "obj-109", "toggle", "int", 0, 5, "obj-104", "flonum", "float", 5.0, 5, "obj-127", "live.gain~", "float", -22.099313735961914, 5, "obj-131", "toggle", "int", 1, 5, "obj-146", "flonum", "float", 30.0, 5, "obj-154", "toggle", "int", 0, 5, "obj-158", "flonum", "float", 32.0 ]
						}
, 						{
							"number" : 58,
							"data" : [ 5, "obj-14", "toggle", "int", 0, 5, "obj-1", "kslider", "int", 36, 5, "obj-25", "toggle", "int", 1, 5, "obj-31", "toggle", "int", 1, 5, "obj-20", "flonum", "float", 65.406394958496094, 5, "obj-5", "toggle", "int", 1, 5, "obj-51", "toggle", "int", 0, 5, "obj-56", "flonum", "float", 32.703197479248047, 5, "obj-57", "flonum", "float", 65.406394958496094, 5, "obj-58", "flonum", "float", 130.812789916992188, 5, "obj-60", "flonum", "float", 196.21917724609375, 5, "obj-62", "flonum", "float", 261.625579833984375, 5, "obj-70", "toggle", "int", 0, 5, "obj-66", "flonum", "float", 21.802131652832031, 5, "obj-76", "toggle", "int", 0, 5, "obj-72", "flonum", "float", 16.351598739624023, 5, "obj-82", "toggle", "int", 0, 5, "obj-78", "flonum", "float", 13.081278800964355, 5, "obj-87", "toggle", "int", 0, 5, "obj-84", "flonum", "float", 327.031982421875, 5, "obj-92", "toggle", "int", 0, 5, "obj-89", "flonum", "float", 392.4383544921875, 5, "obj-97", "toggle", "int", 0, 5, "obj-94", "flonum", "float", 457.844757080078125, 5, "obj-102", "toggle", "int", 0, 5, "obj-99", "flonum", "float", 523.25115966796875, 5, "obj-109", "toggle", "int", 0, 5, "obj-104", "flonum", "float", 10.901065826416016, 5, "obj-127", "live.gain~", "float", -25.327581405639648, 5, "obj-131", "toggle", "int", 1, 5, "obj-146", "flonum", "float", 65.406394958496094, 5, "obj-154", "toggle", "int", 1, 5, "obj-158", "flonum", "float", 1.0 ]
						}
, 						{
							"number" : 59,
							"data" : [ 5, "obj-14", "toggle", "int", 0, 5, "obj-1", "kslider", "int", 36, 5, "obj-25", "toggle", "int", 1, 5, "obj-31", "toggle", "int", 1, 5, "obj-20", "flonum", "float", 65.406394958496094, 5, "obj-5", "toggle", "int", 1, 5, "obj-51", "toggle", "int", 0, 5, "obj-56", "flonum", "float", 0.510987460613251, 5, "obj-57", "flonum", "float", 1.021974921226501, 5, "obj-58", "flonum", "float", 2.043949842453003, 5, "obj-60", "flonum", "float", 3.065924644470215, 5, "obj-62", "flonum", "float", 4.087899684906006, 5, "obj-70", "toggle", "int", 0, 5, "obj-66", "flonum", "float", 0.3406583070755, 5, "obj-76", "toggle", "int", 0, 5, "obj-72", "flonum", "float", 0.255493730306625, 5, "obj-82", "toggle", "int", 0, 5, "obj-78", "flonum", "float", 0.204394981265068, 5, "obj-87", "toggle", "int", 0, 5, "obj-84", "flonum", "float", 5.109874725341797, 5, "obj-92", "toggle", "int", 0, 5, "obj-89", "flonum", "float", 6.13184928894043, 5, "obj-97", "toggle", "int", 0, 5, "obj-94", "flonum", "float", 7.153824329376221, 5, "obj-102", "toggle", "int", 0, 5, "obj-99", "flonum", "float", 8.175799369812012, 5, "obj-109", "toggle", "int", 0, 5, "obj-104", "flonum", "float", 0.17032915353775, 5, "obj-127", "live.gain~", "float", -13.210783958435059, 5, "obj-131", "toggle", "int", 1, 5, "obj-146", "flonum", "float", 1.021974921226501, 5, "obj-154", "toggle", "int", 1, 5, "obj-158", "flonum", "float", 1.0 ]
						}
, 						{
							"number" : 73,
							"data" : [ 5, "obj-14", "toggle", "int", 1, 5, "obj-1", "kslider", "int", 50, 5, "obj-25", "toggle", "int", 1, 5, "obj-31", "toggle", "int", 0, 5, "obj-20", "flonum", "float", 146.832382202148438, 5, "obj-5", "toggle", "int", 1, 5, "obj-51", "toggle", "int", 1, 5, "obj-56", "flonum", "float", 2.294255971908569, 5, "obj-57", "flonum", "float", 4.588511943817139, 5, "obj-58", "flonum", "float", 9.177023887634277, 5, "obj-60", "flonum", "float", 13.765536308288574, 5, "obj-62", "flonum", "float", 18.354047775268555, 5, "obj-70", "toggle", "int", 1, 5, "obj-66", "flonum", "float", 1.52950394153595, 5, "obj-76", "toggle", "int", 1, 5, "obj-72", "flonum", "float", 1.147127985954285, 5, "obj-82", "toggle", "int", 1, 5, "obj-78", "flonum", "float", 0.917702376842499, 5, "obj-87", "toggle", "int", 0, 5, "obj-84", "flonum", "float", 22.942560195922852, 5, "obj-92", "toggle", "int", 0, 5, "obj-89", "flonum", "float", 27.531072616577148, 5, "obj-97", "toggle", "int", 0, 5, "obj-94", "flonum", "float", 32.119583129882812, 5, "obj-102", "toggle", "int", 0, 5, "obj-99", "flonum", "float", 36.708095550537109, 5, "obj-109", "toggle", "int", 1, 5, "obj-104", "flonum", "float", 0.764751970767975, 5, "obj-127", "live.gain~", "float", -20.153118133544922, 5, "obj-131", "toggle", "int", 1, 5, "obj-146", "flonum", "float", 4.588511943817139, 5, "obj-154", "toggle", "int", 1, 5, "obj-158", "flonum", "float", 1.0 ]
						}
, 						{
							"number" : 74,
							"data" : [ 5, "obj-14", "toggle", "int", 1, 5, "obj-1", "kslider", "int", 50, 5, "obj-25", "toggle", "int", 1, 5, "obj-31", "toggle", "int", 0, 5, "obj-20", "flonum", "float", 146.832382202148438, 5, "obj-5", "toggle", "int", 0, 5, "obj-51", "toggle", "int", 0, 5, "obj-56", "flonum", "float", 2.294255971908569, 5, "obj-57", "flonum", "float", 4.588511943817139, 5, "obj-58", "flonum", "float", 9.177023887634277, 5, "obj-60", "flonum", "float", 13.765536308288574, 5, "obj-62", "flonum", "float", 18.354047775268555, 5, "obj-70", "toggle", "int", 1, 5, "obj-66", "flonum", "float", 1.52950394153595, 5, "obj-76", "toggle", "int", 1, 5, "obj-72", "flonum", "float", 1.147127985954285, 5, "obj-82", "toggle", "int", 1, 5, "obj-78", "flonum", "float", 0.917702376842499, 5, "obj-87", "toggle", "int", 1, 5, "obj-84", "flonum", "float", 22.942560195922852, 5, "obj-92", "toggle", "int", 0, 5, "obj-89", "flonum", "float", 27.531072616577148, 5, "obj-97", "toggle", "int", 0, 5, "obj-94", "flonum", "float", 32.119583129882812, 5, "obj-102", "toggle", "int", 0, 5, "obj-99", "flonum", "float", 36.708095550537109, 5, "obj-109", "toggle", "int", 1, 5, "obj-104", "flonum", "float", 0.764751970767975, 5, "obj-127", "live.gain~", "float", -20.153118133544922, 5, "obj-131", "toggle", "int", 1, 5, "obj-146", "flonum", "float", 4.588511943817139, 5, "obj-154", "toggle", "int", 1, 5, "obj-158", "flonum", "float", 1.0 ]
						}
, 						{
							"number" : 75,
							"data" : [ 5, "obj-14", "toggle", "int", 1, 5, "obj-1", "kslider", "int", 50, 5, "obj-25", "toggle", "int", 0, 5, "obj-31", "toggle", "int", 0, 5, "obj-20", "flonum", "float", 146.832382202148438, 5, "obj-5", "toggle", "int", 0, 5, "obj-51", "toggle", "int", 0, 5, "obj-56", "flonum", "float", 2.294255971908569, 5, "obj-57", "flonum", "float", 4.588511943817139, 5, "obj-58", "flonum", "float", 9.177023887634277, 5, "obj-60", "flonum", "float", 13.765536308288574, 5, "obj-62", "flonum", "float", 18.354047775268555, 5, "obj-70", "toggle", "int", 1, 5, "obj-66", "flonum", "float", 1.52950394153595, 5, "obj-76", "toggle", "int", 1, 5, "obj-72", "flonum", "float", 1.147127985954285, 5, "obj-82", "toggle", "int", 1, 5, "obj-78", "flonum", "float", 0.917702376842499, 5, "obj-87", "toggle", "int", 1, 5, "obj-84", "flonum", "float", 22.942560195922852, 5, "obj-92", "toggle", "int", 0, 5, "obj-89", "flonum", "float", 27.531072616577148, 5, "obj-97", "toggle", "int", 0, 5, "obj-94", "flonum", "float", 32.119583129882812, 5, "obj-102", "toggle", "int", 1, 5, "obj-99", "flonum", "float", 36.708095550537109, 5, "obj-109", "toggle", "int", 1, 5, "obj-104", "flonum", "float", 0.764751970767975, 5, "obj-127", "live.gain~", "float", -20.153118133544922, 5, "obj-131", "toggle", "int", 1, 5, "obj-146", "flonum", "float", 4.588511943817139, 5, "obj-154", "toggle", "int", 1, 5, "obj-158", "flonum", "float", 1.0 ]
						}
, 						{
							"number" : 76,
							"data" : [ 5, "obj-14", "toggle", "int", 1, 5, "obj-1", "kslider", "int", 50, 5, "obj-25", "toggle", "int", 0, 5, "obj-31", "toggle", "int", 0, 5, "obj-20", "flonum", "float", 146.832382202148438, 5, "obj-5", "toggle", "int", 1, 5, "obj-51", "toggle", "int", 1, 5, "obj-56", "flonum", "float", 2.294255971908569, 5, "obj-57", "flonum", "float", 4.588511943817139, 5, "obj-58", "flonum", "float", 9.177023887634277, 5, "obj-60", "flonum", "float", 13.765536308288574, 5, "obj-62", "flonum", "float", 18.354047775268555, 5, "obj-70", "toggle", "int", 0, 5, "obj-66", "flonum", "float", 1.52950394153595, 5, "obj-76", "toggle", "int", 1, 5, "obj-72", "flonum", "float", 1.147127985954285, 5, "obj-82", "toggle", "int", 1, 5, "obj-78", "flonum", "float", 0.917702376842499, 5, "obj-87", "toggle", "int", 0, 5, "obj-84", "flonum", "float", 22.942560195922852, 5, "obj-92", "toggle", "int", 0, 5, "obj-89", "flonum", "float", 27.531072616577148, 5, "obj-97", "toggle", "int", 0, 5, "obj-94", "flonum", "float", 32.119583129882812, 5, "obj-102", "toggle", "int", 0, 5, "obj-99", "flonum", "float", 36.708095550537109, 5, "obj-109", "toggle", "int", 1, 5, "obj-104", "flonum", "float", 0.764751970767975, 5, "obj-127", "live.gain~", "float", -20.153118133544922, 5, "obj-131", "toggle", "int", 1, 5, "obj-146", "flonum", "float", 4.588511943817139, 5, "obj-154", "toggle", "int", 1, 5, "obj-158", "flonum", "float", 1.0 ]
						}
, 						{
							"number" : 77,
							"data" : [ 5, "obj-14", "toggle", "int", 0, 5, "obj-1", "kslider", "int", 36, 5, "obj-25", "toggle", "int", 1, 5, "obj-31", "toggle", "int", 0, 5, "obj-20", "flonum", "float", 65.406394958496094, 5, "obj-5", "toggle", "int", 1, 5, "obj-51", "toggle", "int", 0, 5, "obj-56", "flonum", "float", 0.510987460613251, 5, "obj-57", "flonum", "float", 1.021974921226501, 5, "obj-58", "flonum", "float", 2.043949842453003, 5, "obj-60", "flonum", "float", 3.065924644470215, 5, "obj-62", "flonum", "float", 4.087899684906006, 5, "obj-70", "toggle", "int", 0, 5, "obj-66", "flonum", "float", 0.3406583070755, 5, "obj-76", "toggle", "int", 0, 5, "obj-72", "flonum", "float", 0.255493730306625, 5, "obj-82", "toggle", "int", 0, 5, "obj-78", "flonum", "float", 0.204394981265068, 5, "obj-87", "toggle", "int", 0, 5, "obj-84", "flonum", "float", 5.109874725341797, 5, "obj-92", "toggle", "int", 0, 5, "obj-89", "flonum", "float", 6.13184928894043, 5, "obj-97", "toggle", "int", 0, 5, "obj-94", "flonum", "float", 7.153824329376221, 5, "obj-102", "toggle", "int", 0, 5, "obj-99", "flonum", "float", 8.175799369812012, 5, "obj-109", "toggle", "int", 0, 5, "obj-104", "flonum", "float", 0.17032915353775, 5, "obj-127", "live.gain~", "float", -22.099313735961914, 5, "obj-131", "toggle", "int", 1, 5, "obj-146", "flonum", "float", 1.021974921226501, 5, "obj-154", "toggle", "int", 1, 5, "obj-158", "flonum", "float", 1.0 ]
						}
, 						{
							"number" : 78,
							"data" : [ 5, "obj-14", "toggle", "int", 0, 5, "obj-1", "kslider", "int", 36, 5, "obj-25", "toggle", "int", 1, 5, "obj-31", "toggle", "int", 1, 5, "obj-20", "flonum", "float", 30.0, 5, "obj-5", "toggle", "int", 0, 5, "obj-51", "toggle", "int", 0, 5, "obj-56", "flonum", "float", 15.0, 5, "obj-57", "flonum", "float", 30.0, 5, "obj-58", "flonum", "float", 60.0, 5, "obj-60", "flonum", "float", 90.0, 5, "obj-62", "flonum", "float", 120.0, 5, "obj-70", "toggle", "int", 0, 5, "obj-66", "flonum", "float", 10.0, 5, "obj-76", "toggle", "int", 0, 5, "obj-72", "flonum", "float", 7.5, 5, "obj-82", "toggle", "int", 0, 5, "obj-78", "flonum", "float", 6.0, 5, "obj-87", "toggle", "int", 0, 5, "obj-84", "flonum", "float", 150.0, 5, "obj-92", "toggle", "int", 1, 5, "obj-89", "flonum", "float", 180.0, 5, "obj-97", "toggle", "int", 0, 5, "obj-94", "flonum", "float", 210.0, 5, "obj-102", "toggle", "int", 1, 5, "obj-99", "flonum", "float", 240.0, 5, "obj-109", "toggle", "int", 0, 5, "obj-104", "flonum", "float", 5.0, 5, "obj-127", "live.gain~", "float", -22.099313735961914, 5, "obj-131", "toggle", "int", 1, 5, "obj-146", "flonum", "float", 30.0, 5, "obj-154", "toggle", "int", 0, 5, "obj-158", "flonum", "float", 32.0 ]
						}
, 						{
							"number" : 79,
							"data" : [ 5, "obj-14", "toggle", "int", 0, 5, "obj-1", "kslider", "int", 36, 5, "obj-25", "toggle", "int", 1, 5, "obj-31", "toggle", "int", 1, 5, "obj-20", "flonum", "float", 30.0, 5, "obj-5", "toggle", "int", 0, 5, "obj-51", "toggle", "int", 0, 5, "obj-56", "flonum", "float", 0.46875, 5, "obj-57", "flonum", "float", 0.9375, 5, "obj-58", "flonum", "float", 1.875, 5, "obj-60", "flonum", "float", 2.8125, 5, "obj-62", "flonum", "float", 3.75, 5, "obj-70", "toggle", "int", 0, 5, "obj-66", "flonum", "float", 0.3125, 5, "obj-76", "toggle", "int", 0, 5, "obj-72", "flonum", "float", 0.234375, 5, "obj-82", "toggle", "int", 0, 5, "obj-78", "flonum", "float", 0.1875, 5, "obj-87", "toggle", "int", 0, 5, "obj-84", "flonum", "float", 4.6875, 5, "obj-92", "toggle", "int", 1, 5, "obj-89", "flonum", "float", 5.625, 5, "obj-97", "toggle", "int", 0, 5, "obj-94", "flonum", "float", 6.5625, 5, "obj-102", "toggle", "int", 1, 5, "obj-99", "flonum", "float", 7.5, 5, "obj-109", "toggle", "int", 0, 5, "obj-104", "flonum", "float", 0.15625, 5, "obj-127", "live.gain~", "float", -22.099313735961914, 5, "obj-131", "toggle", "int", 1, 5, "obj-146", "flonum", "float", 0.9375, 5, "obj-154", "toggle", "int", 1, 5, "obj-158", "flonum", "float", 1.0 ]
						}
, 						{
							"number" : 80,
							"data" : [ 5, "obj-14", "toggle", "int", 0, 5, "obj-1", "kslider", "int", 36, 5, "obj-25", "toggle", "int", 1, 5, "obj-31", "toggle", "int", 1, 5, "obj-20", "flonum", "float", 30.0, 5, "obj-5", "toggle", "int", 0, 5, "obj-51", "toggle", "int", 0, 5, "obj-56", "flonum", "float", 0.46875, 5, "obj-57", "flonum", "float", 0.9375, 5, "obj-58", "flonum", "float", 1.875, 5, "obj-60", "flonum", "float", 2.8125, 5, "obj-62", "flonum", "float", 3.75, 5, "obj-70", "toggle", "int", 0, 5, "obj-66", "flonum", "float", 0.3125, 5, "obj-76", "toggle", "int", 0, 5, "obj-72", "flonum", "float", 0.234375, 5, "obj-82", "toggle", "int", 0, 5, "obj-78", "flonum", "float", 0.1875, 5, "obj-87", "toggle", "int", 1, 5, "obj-84", "flonum", "float", 4.6875, 5, "obj-92", "toggle", "int", 1, 5, "obj-89", "flonum", "float", 5.625, 5, "obj-97", "toggle", "int", 0, 5, "obj-94", "flonum", "float", 6.5625, 5, "obj-102", "toggle", "int", 0, 5, "obj-99", "flonum", "float", 7.5, 5, "obj-109", "toggle", "int", 0, 5, "obj-104", "flonum", "float", 0.15625, 5, "obj-127", "live.gain~", "float", -22.099313735961914, 5, "obj-131", "toggle", "int", 1, 5, "obj-146", "flonum", "float", 0.9375, 5, "obj-154", "toggle", "int", 1, 5, "obj-158", "flonum", "float", 1.0 ]
						}
, 						{
							"number" : 91,
							"data" : [ 5, "obj-14", "toggle", "int", 0, 5, "obj-1", "kslider", "int", 50, 5, "obj-25", "toggle", "int", 0, 5, "obj-31", "toggle", "int", 0, 5, "obj-20", "flonum", "float", 146.832382202148438, 5, "obj-5", "toggle", "int", 0, 5, "obj-51", "toggle", "int", 1, 5, "obj-56", "flonum", "float", 2.294255971908569, 5, "obj-57", "flonum", "float", 4.588511943817139, 5, "obj-58", "flonum", "float", 9.177023887634277, 5, "obj-60", "flonum", "float", 13.765535354614258, 5, "obj-62", "flonum", "float", 18.354047775268555, 5, "obj-70", "toggle", "int", 1, 5, "obj-66", "flonum", "float", 1.52950394153595, 5, "obj-76", "toggle", "int", 1, 5, "obj-72", "flonum", "float", 1.147127985954285, 5, "obj-82", "toggle", "int", 1, 5, "obj-78", "flonum", "float", 0.917702376842499, 5, "obj-87", "toggle", "int", 0, 5, "obj-84", "flonum", "float", 22.942560195922852, 5, "obj-92", "toggle", "int", 0, 5, "obj-89", "flonum", "float", 27.531070709228516, 5, "obj-97", "toggle", "int", 0, 5, "obj-94", "flonum", "float", 32.119583129882812, 5, "obj-102", "toggle", "int", 0, 5, "obj-99", "flonum", "float", 36.708095550537109, 5, "obj-109", "toggle", "int", 1, 5, "obj-104", "flonum", "float", 0.764751970767975, 5, "obj-127", "live.gain~", "float", -20.153118133544922, 5, "obj-131", "toggle", "int", 1, 5, "obj-146", "flonum", "float", 4.588511943817139, 5, "obj-154", "toggle", "int", 1, 5, "obj-158", "flonum", "float", 1.0 ]
						}
, 						{
							"number" : 92,
							"data" : [ 5, "obj-14", "toggle", "int", 0, 5, "obj-1", "kslider", "int", 36, 5, "obj-25", "toggle", "int", 0, 5, "obj-31", "toggle", "int", 1, 5, "obj-20", "flonum", "float", 65.406394958496094, 5, "obj-5", "toggle", "int", 1, 5, "obj-51", "toggle", "int", 0, 5, "obj-56", "flonum", "float", 0.510987460613251, 5, "obj-57", "flonum", "float", 1.021974921226501, 5, "obj-58", "flonum", "float", 2.043949842453003, 5, "obj-60", "flonum", "float", 3.065924644470215, 5, "obj-62", "flonum", "float", 4.087899684906006, 5, "obj-70", "toggle", "int", 0, 5, "obj-66", "flonum", "float", 0.3406583070755, 5, "obj-76", "toggle", "int", 0, 5, "obj-72", "flonum", "float", 0.255493730306625, 5, "obj-82", "toggle", "int", 1, 5, "obj-78", "flonum", "float", 0.204394981265068, 5, "obj-87", "toggle", "int", 0, 5, "obj-84", "flonum", "float", 5.109874725341797, 5, "obj-92", "toggle", "int", 1, 5, "obj-89", "flonum", "float", 6.13184928894043, 5, "obj-97", "toggle", "int", 0, 5, "obj-94", "flonum", "float", 7.153824329376221, 5, "obj-102", "toggle", "int", 1, 5, "obj-99", "flonum", "float", 8.175799369812012, 5, "obj-109", "toggle", "int", 0, 5, "obj-104", "flonum", "float", 0.17032915353775, 5, "obj-127", "live.gain~", "float", -22.099313735961914, 5, "obj-131", "toggle", "int", 1, 5, "obj-146", "flonum", "float", 1.021974921226501, 5, "obj-154", "toggle", "int", 1, 5, "obj-158", "flonum", "float", 1.0 ]
						}
, 						{
							"number" : 111,
							"data" : [ 5, "obj-14", "toggle", "int", 1, 5, "obj-1", "kslider", "int", 50, 5, "obj-25", "toggle", "int", 0, 5, "obj-31", "toggle", "int", 0, 5, "obj-20", "flonum", "float", 146.832382202148438, 5, "obj-5", "toggle", "int", 0, 5, "obj-51", "toggle", "int", 1, 5, "obj-56", "flonum", "float", 2.294255971908569, 5, "obj-57", "flonum", "float", 4.588511943817139, 5, "obj-58", "flonum", "float", 9.177023887634277, 5, "obj-60", "flonum", "float", 13.765535354614258, 5, "obj-62", "flonum", "float", 18.354047775268555, 5, "obj-70", "toggle", "int", 1, 5, "obj-66", "flonum", "float", 1.52950394153595, 5, "obj-76", "toggle", "int", 1, 5, "obj-72", "flonum", "float", 1.147127985954285, 5, "obj-82", "toggle", "int", 1, 5, "obj-78", "flonum", "float", 0.917702376842499, 5, "obj-87", "toggle", "int", 0, 5, "obj-84", "flonum", "float", 22.942560195922852, 5, "obj-92", "toggle", "int", 0, 5, "obj-89", "flonum", "float", 27.531070709228516, 5, "obj-97", "toggle", "int", 0, 5, "obj-94", "flonum", "float", 32.119583129882812, 5, "obj-102", "toggle", "int", 0, 5, "obj-99", "flonum", "float", 36.708095550537109, 5, "obj-109", "toggle", "int", 1, 5, "obj-104", "flonum", "float", 0.764751970767975, 5, "obj-127", "live.gain~", "float", -20.153118133544922, 5, "obj-131", "toggle", "int", 1, 5, "obj-146", "flonum", "float", 4.588511943817139, 5, "obj-154", "toggle", "int", 1, 5, "obj-158", "flonum", "float", 1.0 ]
						}
, 						{
							"number" : 134,
							"data" : [ 5, "obj-14", "toggle", "int", 0, 5, "<invalid>", "live.gain~", "float", -3.239522457122803, 5, "obj-1", "kslider", "int", 39, 5, "obj-25", "toggle", "int", 0, 5, "obj-31", "toggle", "int", 0, 5, "obj-20", "flonum", "float", 100.0, 5, "obj-5", "toggle", "int", 0, 5, "obj-51", "toggle", "int", 0, 5, "obj-56", "flonum", "float", 50.0, 5, "obj-57", "flonum", "float", 100.0, 5, "obj-58", "flonum", "float", 200.0, 5, "obj-60", "flonum", "float", 300.0, 5, "obj-62", "flonum", "float", 400.0, 5, "obj-70", "toggle", "int", 0, 5, "obj-66", "flonum", "float", 33.333332061767578, 5, "obj-76", "toggle", "int", 0, 5, "obj-72", "flonum", "float", 25.0, 5, "obj-82", "toggle", "int", 0, 5, "obj-78", "flonum", "float", 20.0, 5, "obj-87", "toggle", "int", 0, 5, "obj-84", "flonum", "float", 0.0, 5, "obj-92", "toggle", "int", 0, 5, "obj-89", "flonum", "float", 0.0, 5, "obj-97", "toggle", "int", 0, 5, "obj-94", "flonum", "float", 700.0, 5, "obj-102", "toggle", "int", 0, 5, "obj-99", "flonum", "float", 800.0, 5, "obj-109", "toggle", "int", 0, 5, "obj-104", "flonum", "float", 16.666666030883789 ]
						}
 ]
				}

			}
, 			{
				"box" : 				{
					"format" : 6,
					"id" : "obj-104",
					"maxclass" : "flonum",
					"numinlets" : 1,
					"numoutlets" : 2,
					"outlettype" : [ "", "bang" ],
					"parameter_enable" : 0,
					"patching_rect" : [ 8.0, 271.0, 50.0, 22.0 ]
				}

			}
, 			{
				"box" : 				{
					"fontname" : "Arial",
					"fontsize" : 13.0,
					"id" : "obj-105",
					"maxclass" : "newobj",
					"numinlets" : 3,
					"numoutlets" : 4,
					"outlettype" : [ "signal", "signal", "signal", "signal" ],
					"patching_rect" : [ 6.75, 351.0, 91.0, 23.0 ],
					"text" : "svf~ 2200. 0.8"
				}

			}
, 			{
				"box" : 				{
					"id" : "obj-106",
					"maxclass" : "newobj",
					"numinlets" : 2,
					"numoutlets" : 1,
					"outlettype" : [ "float" ],
					"patching_rect" : [ 8.0, 233.0, 29.5, 22.0 ],
					"text" : "/ 6."
				}

			}
, 			{
				"box" : 				{
					"id" : "obj-107",
					"maxclass" : "newobj",
					"numinlets" : 2,
					"numoutlets" : 1,
					"outlettype" : [ "signal" ],
					"patching_rect" : [ 6.75, 434.0, 29.5, 22.0 ],
					"text" : "*~"
				}

			}
, 			{
				"box" : 				{
					"id" : "obj-109",
					"maxclass" : "toggle",
					"numinlets" : 1,
					"numoutlets" : 1,
					"outlettype" : [ "int" ],
					"parameter_enable" : 0,
					"patching_rect" : [ 38.75, 395.0, 24.0, 24.0 ]
				}

			}
, 			{
				"box" : 				{
					"id" : "obj-110",
					"maxclass" : "newobj",
					"numinlets" : 2,
					"numoutlets" : 1,
					"outlettype" : [ "signal" ],
					"patching_rect" : [ 6.75, 310.0, 52.0, 22.0 ],
					"text" : "phasor~"
				}

			}
, 			{
				"box" : 				{
					"format" : 6,
					"id" : "obj-99",
					"maxclass" : "flonum",
					"numinlets" : 1,
					"numoutlets" : 2,
					"outlettype" : [ "", "bang" ],
					"parameter_enable" : 0,
					"patching_rect" : [ 1237.75, 272.0, 50.0, 22.0 ]
				}

			}
, 			{
				"box" : 				{
					"fontname" : "Arial",
					"fontsize" : 13.0,
					"id" : "obj-100",
					"maxclass" : "newobj",
					"numinlets" : 3,
					"numoutlets" : 4,
					"outlettype" : [ "signal", "signal", "signal", "signal" ],
					"patching_rect" : [ 1236.25, 351.0, 91.0, 23.0 ],
					"text" : "svf~ 2700. 0.8"
				}

			}
, 			{
				"box" : 				{
					"id" : "obj-101",
					"maxclass" : "newobj",
					"numinlets" : 2,
					"numoutlets" : 1,
					"outlettype" : [ "signal" ],
					"patching_rect" : [ 1236.25, 435.0, 29.5, 22.0 ],
					"text" : "*~"
				}

			}
, 			{
				"box" : 				{
					"id" : "obj-102",
					"maxclass" : "toggle",
					"numinlets" : 1,
					"numoutlets" : 1,
					"outlettype" : [ "int" ],
					"parameter_enable" : 0,
					"patching_rect" : [ 1264.5, 396.0, 24.0, 24.0 ]
				}

			}
, 			{
				"box" : 				{
					"id" : "obj-103",
					"maxclass" : "newobj",
					"numinlets" : 2,
					"numoutlets" : 1,
					"outlettype" : [ "signal" ],
					"patching_rect" : [ 1236.5, 311.0, 52.0, 22.0 ],
					"text" : "phasor~"
				}

			}
, 			{
				"box" : 				{
					"format" : 6,
					"id" : "obj-94",
					"maxclass" : "flonum",
					"numinlets" : 1,
					"numoutlets" : 2,
					"outlettype" : [ "", "bang" ],
					"parameter_enable" : 0,
					"patching_rect" : [ 1132.75, 272.0, 50.0, 22.0 ]
				}

			}
, 			{
				"box" : 				{
					"fontname" : "Arial",
					"fontsize" : 13.0,
					"id" : "obj-95",
					"maxclass" : "newobj",
					"numinlets" : 3,
					"numoutlets" : 4,
					"outlettype" : [ "signal", "signal", "signal", "signal" ],
					"patching_rect" : [ 1132.25, 351.0, 91.0, 23.0 ],
					"text" : "svf~ 2100. 0.8"
				}

			}
, 			{
				"box" : 				{
					"id" : "obj-96",
					"maxclass" : "newobj",
					"numinlets" : 2,
					"numoutlets" : 1,
					"outlettype" : [ "signal" ],
					"patching_rect" : [ 1131.25, 435.0, 29.5, 22.0 ],
					"text" : "*~"
				}

			}
, 			{
				"box" : 				{
					"id" : "obj-97",
					"maxclass" : "toggle",
					"numinlets" : 1,
					"numoutlets" : 1,
					"outlettype" : [ "int" ],
					"parameter_enable" : 0,
					"patching_rect" : [ 1159.5, 396.0, 24.0, 24.0 ]
				}

			}
, 			{
				"box" : 				{
					"id" : "obj-98",
					"maxclass" : "newobj",
					"numinlets" : 2,
					"numoutlets" : 1,
					"outlettype" : [ "signal" ],
					"patching_rect" : [ 1131.5, 311.0, 52.0, 22.0 ],
					"text" : "phasor~"
				}

			}
, 			{
				"box" : 				{
					"format" : 6,
					"id" : "obj-89",
					"maxclass" : "flonum",
					"numinlets" : 1,
					"numoutlets" : 2,
					"outlettype" : [ "", "bang" ],
					"parameter_enable" : 0,
					"patching_rect" : [ 1036.75, 272.0, 50.0, 22.0 ]
				}

			}
, 			{
				"box" : 				{
					"fontname" : "Arial",
					"fontsize" : 13.0,
					"id" : "obj-90",
					"maxclass" : "newobj",
					"numinlets" : 3,
					"numoutlets" : 4,
					"outlettype" : [ "signal", "signal", "signal", "signal" ],
					"patching_rect" : [ 1035.25, 351.0, 91.0, 23.0 ],
					"text" : "svf~ 1700. 0.8"
				}

			}
, 			{
				"box" : 				{
					"id" : "obj-91",
					"maxclass" : "newobj",
					"numinlets" : 2,
					"numoutlets" : 1,
					"outlettype" : [ "signal" ],
					"patching_rect" : [ 1035.25, 435.0, 29.5, 22.0 ],
					"text" : "*~"
				}

			}
, 			{
				"box" : 				{
					"id" : "obj-92",
					"maxclass" : "toggle",
					"numinlets" : 1,
					"numoutlets" : 1,
					"outlettype" : [ "int" ],
					"parameter_enable" : 0,
					"patching_rect" : [ 1063.5, 396.0, 24.0, 24.0 ]
				}

			}
, 			{
				"box" : 				{
					"id" : "obj-93",
					"maxclass" : "newobj",
					"numinlets" : 2,
					"numoutlets" : 1,
					"outlettype" : [ "signal" ],
					"patching_rect" : [ 1035.5, 311.0, 52.0, 22.0 ],
					"text" : "phasor~"
				}

			}
, 			{
				"box" : 				{
					"format" : 6,
					"id" : "obj-84",
					"maxclass" : "flonum",
					"numinlets" : 1,
					"numoutlets" : 2,
					"outlettype" : [ "", "bang" ],
					"parameter_enable" : 0,
					"patching_rect" : [ 935.25, 272.0, 50.0, 22.0 ]
				}

			}
, 			{
				"box" : 				{
					"fontname" : "Arial",
					"fontsize" : 13.0,
					"id" : "obj-85",
					"maxclass" : "newobj",
					"numinlets" : 3,
					"numoutlets" : 4,
					"outlettype" : [ "signal", "signal", "signal", "signal" ],
					"patching_rect" : [ 933.75, 351.0, 91.0, 23.0 ],
					"text" : "svf~ 1800. 0.8"
				}

			}
, 			{
				"box" : 				{
					"id" : "obj-86",
					"maxclass" : "newobj",
					"numinlets" : 2,
					"numoutlets" : 1,
					"outlettype" : [ "signal" ],
					"patching_rect" : [ 933.75, 435.0, 29.5, 22.0 ],
					"text" : "*~"
				}

			}
, 			{
				"box" : 				{
					"id" : "obj-87",
					"maxclass" : "toggle",
					"numinlets" : 1,
					"numoutlets" : 1,
					"outlettype" : [ "int" ],
					"parameter_enable" : 0,
					"patching_rect" : [ 962.0, 396.0, 24.0, 24.0 ]
				}

			}
, 			{
				"box" : 				{
					"id" : "obj-88",
					"maxclass" : "newobj",
					"numinlets" : 2,
					"numoutlets" : 1,
					"outlettype" : [ "signal" ],
					"patching_rect" : [ 934.0, 311.0, 52.0, 22.0 ],
					"text" : "phasor~"
				}

			}
, 			{
				"box" : 				{
					"format" : 6,
					"id" : "obj-78",
					"maxclass" : "flonum",
					"numinlets" : 1,
					"numoutlets" : 2,
					"outlettype" : [ "", "bang" ],
					"parameter_enable" : 0,
					"patching_rect" : [ 111.0, 272.0, 50.0, 22.0 ]
				}

			}
, 			{
				"box" : 				{
					"fontname" : "Arial",
					"fontsize" : 13.0,
					"id" : "obj-79",
					"maxclass" : "newobj",
					"numinlets" : 3,
					"numoutlets" : 4,
					"outlettype" : [ "signal", "signal", "signal", "signal" ],
					"patching_rect" : [ 111.0, 351.0, 91.0, 23.0 ],
					"text" : "svf~ 1400. 0.8"
				}

			}
, 			{
				"box" : 				{
					"id" : "obj-80",
					"maxclass" : "newobj",
					"numinlets" : 2,
					"numoutlets" : 1,
					"outlettype" : [ "float" ],
					"patching_rect" : [ 111.0, 234.0, 29.5, 22.0 ],
					"text" : "/ 5."
				}

			}
, 			{
				"box" : 				{
					"id" : "obj-81",
					"maxclass" : "newobj",
					"numinlets" : 2,
					"numoutlets" : 1,
					"outlettype" : [ "signal" ],
					"patching_rect" : [ 109.75, 435.0, 29.5, 22.0 ],
					"text" : "*~"
				}

			}
, 			{
				"box" : 				{
					"id" : "obj-82",
					"maxclass" : "toggle",
					"numinlets" : 1,
					"numoutlets" : 1,
					"outlettype" : [ "int" ],
					"parameter_enable" : 0,
					"patching_rect" : [ 141.75, 396.0, 24.0, 24.0 ]
				}

			}
, 			{
				"box" : 				{
					"id" : "obj-83",
					"maxclass" : "newobj",
					"numinlets" : 2,
					"numoutlets" : 1,
					"outlettype" : [ "signal" ],
					"patching_rect" : [ 109.75, 311.0, 52.0, 22.0 ],
					"text" : "phasor~"
				}

			}
, 			{
				"box" : 				{
					"format" : 6,
					"id" : "obj-72",
					"maxclass" : "flonum",
					"numinlets" : 1,
					"numoutlets" : 2,
					"outlettype" : [ "", "bang" ],
					"parameter_enable" : 0,
					"patching_rect" : [ 206.0, 272.0, 50.0, 22.0 ]
				}

			}
, 			{
				"box" : 				{
					"fontname" : "Arial",
					"fontsize" : 13.0,
					"id" : "obj-73",
					"maxclass" : "newobj",
					"numinlets" : 3,
					"numoutlets" : 4,
					"outlettype" : [ "signal", "signal", "signal", "signal" ],
					"patching_rect" : [ 204.75, 351.0, 91.0, 23.0 ],
					"text" : "svf~ 1600. 0.8"
				}

			}
, 			{
				"box" : 				{
					"id" : "obj-74",
					"maxclass" : "newobj",
					"numinlets" : 2,
					"numoutlets" : 1,
					"outlettype" : [ "float" ],
					"patching_rect" : [ 206.0, 234.0, 29.5, 22.0 ],
					"text" : "/ 4."
				}

			}
, 			{
				"box" : 				{
					"id" : "obj-75",
					"maxclass" : "newobj",
					"numinlets" : 2,
					"numoutlets" : 1,
					"outlettype" : [ "signal" ],
					"patching_rect" : [ 204.75, 435.0, 29.5, 22.0 ],
					"text" : "*~"
				}

			}
, 			{
				"box" : 				{
					"id" : "obj-76",
					"maxclass" : "toggle",
					"numinlets" : 1,
					"numoutlets" : 1,
					"outlettype" : [ "int" ],
					"parameter_enable" : 0,
					"patching_rect" : [ 236.75, 396.0, 24.0, 24.0 ]
				}

			}
, 			{
				"box" : 				{
					"id" : "obj-77",
					"maxclass" : "newobj",
					"numinlets" : 2,
					"numoutlets" : 1,
					"outlettype" : [ "signal" ],
					"patching_rect" : [ 204.75, 311.0, 52.0, 22.0 ],
					"text" : "phasor~"
				}

			}
, 			{
				"box" : 				{
					"format" : 6,
					"id" : "obj-66",
					"maxclass" : "flonum",
					"numinlets" : 1,
					"numoutlets" : 2,
					"outlettype" : [ "", "bang" ],
					"parameter_enable" : 0,
					"patching_rect" : [ 303.0, 272.0, 50.0, 22.0 ]
				}

			}
, 			{
				"box" : 				{
					"fontname" : "Arial",
					"fontsize" : 13.0,
					"id" : "obj-67",
					"maxclass" : "newobj",
					"numinlets" : 3,
					"numoutlets" : 4,
					"outlettype" : [ "signal", "signal", "signal", "signal" ],
					"patching_rect" : [ 303.0, 351.0, 83.0, 23.0 ],
					"text" : "svf~ 700. 0.8"
				}

			}
, 			{
				"box" : 				{
					"id" : "obj-68",
					"maxclass" : "newobj",
					"numinlets" : 2,
					"numoutlets" : 1,
					"outlettype" : [ "float" ],
					"patching_rect" : [ 303.0, 234.0, 29.5, 22.0 ],
					"text" : "/ 3."
				}

			}
, 			{
				"box" : 				{
					"id" : "obj-69",
					"maxclass" : "newobj",
					"numinlets" : 2,
					"numoutlets" : 1,
					"outlettype" : [ "signal" ],
					"patching_rect" : [ 301.75, 435.0, 29.5, 22.0 ],
					"text" : "*~"
				}

			}
, 			{
				"box" : 				{
					"id" : "obj-70",
					"maxclass" : "toggle",
					"numinlets" : 1,
					"numoutlets" : 1,
					"outlettype" : [ "int" ],
					"parameter_enable" : 0,
					"patching_rect" : [ 333.75, 396.0, 24.0, 24.0 ]
				}

			}
, 			{
				"box" : 				{
					"id" : "obj-71",
					"maxclass" : "newobj",
					"numinlets" : 2,
					"numoutlets" : 1,
					"outlettype" : [ "signal" ],
					"patching_rect" : [ 301.75, 311.0, 52.0, 22.0 ],
					"text" : "phasor~"
				}

			}
, 			{
				"box" : 				{
					"format" : 6,
					"id" : "obj-62",
					"maxclass" : "flonum",
					"numinlets" : 1,
					"numoutlets" : 2,
					"outlettype" : [ "", "bang" ],
					"parameter_enable" : 0,
					"patching_rect" : [ 824.25, 272.0, 50.0, 22.0 ]
				}

			}
, 			{
				"box" : 				{
					"format" : 6,
					"id" : "obj-60",
					"maxclass" : "flonum",
					"numinlets" : 1,
					"numoutlets" : 2,
					"outlettype" : [ "", "bang" ],
					"parameter_enable" : 0,
					"patching_rect" : [ 718.25, 272.0, 50.0, 22.0 ]
				}

			}
, 			{
				"box" : 				{
					"format" : 6,
					"id" : "obj-58",
					"maxclass" : "flonum",
					"numinlets" : 1,
					"numoutlets" : 2,
					"outlettype" : [ "", "bang" ],
					"parameter_enable" : 0,
					"patching_rect" : [ 606.75, 272.0, 50.0, 22.0 ]
				}

			}
, 			{
				"box" : 				{
					"format" : 6,
					"id" : "obj-57",
					"maxclass" : "flonum",
					"numinlets" : 1,
					"numoutlets" : 2,
					"outlettype" : [ "", "bang" ],
					"parameter_enable" : 0,
					"patching_rect" : [ 514.0, 272.0, 50.0, 22.0 ]
				}

			}
, 			{
				"box" : 				{
					"format" : 6,
					"id" : "obj-56",
					"maxclass" : "flonum",
					"numinlets" : 1,
					"numoutlets" : 2,
					"outlettype" : [ "", "bang" ],
					"parameter_enable" : 0,
					"patching_rect" : [ 406.0, 272.0, 50.0, 22.0 ]
				}

			}
, 			{
				"box" : 				{
					"fontname" : "Arial",
					"fontsize" : 13.0,
					"id" : "obj-55",
					"maxclass" : "newobj",
					"numinlets" : 3,
					"numoutlets" : 4,
					"outlettype" : [ "signal", "signal", "signal", "signal" ],
					"patching_rect" : [ 404.0, 351.0, 83.0, 23.0 ],
					"text" : "svf~ 600. 0.8"
				}

			}
, 			{
				"box" : 				{
					"fontname" : "Arial",
					"fontsize" : 13.0,
					"id" : "obj-54",
					"maxclass" : "newobj",
					"numinlets" : 3,
					"numoutlets" : 4,
					"outlettype" : [ "signal", "signal", "signal", "signal" ],
					"patching_rect" : [ 513.0, 351.0, 91.0, 23.0 ],
					"text" : "svf~ 1000. 0.8"
				}

			}
, 			{
				"box" : 				{
					"id" : "obj-49",
					"maxclass" : "newobj",
					"numinlets" : 2,
					"numoutlets" : 1,
					"outlettype" : [ "float" ],
					"patching_rect" : [ 406.0, 234.0, 29.5, 22.0 ],
					"text" : "/ 2."
				}

			}
, 			{
				"box" : 				{
					"id" : "obj-50",
					"maxclass" : "newobj",
					"numinlets" : 2,
					"numoutlets" : 1,
					"outlettype" : [ "signal" ],
					"patching_rect" : [ 404.75, 435.0, 29.5, 22.0 ],
					"text" : "*~"
				}

			}
, 			{
				"box" : 				{
					"id" : "obj-51",
					"maxclass" : "toggle",
					"numinlets" : 1,
					"numoutlets" : 1,
					"outlettype" : [ "int" ],
					"parameter_enable" : 0,
					"patching_rect" : [ 436.75, 396.0, 24.0, 24.0 ]
				}

			}
, 			{
				"box" : 				{
					"id" : "obj-52",
					"maxclass" : "newobj",
					"numinlets" : 2,
					"numoutlets" : 1,
					"outlettype" : [ "signal" ],
					"patching_rect" : [ 404.75, 311.0, 52.0, 22.0 ],
					"text" : "phasor~"
				}

			}
, 			{
				"box" : 				{
					"id" : "obj-48",
					"maxclass" : "newobj",
					"numinlets" : 2,
					"numoutlets" : 1,
					"outlettype" : [ "float" ],
					"patching_rect" : [ 514.0, 234.0, 29.5, 22.0 ],
					"text" : "* 1."
				}

			}
, 			{
				"box" : 				{
					"fontname" : "Arial",
					"fontsize" : 13.0,
					"id" : "obj-46",
					"maxclass" : "newobj",
					"numinlets" : 3,
					"numoutlets" : 4,
					"outlettype" : [ "signal", "signal", "signal", "signal" ],
					"patching_rect" : [ 822.75, 351.0, 91.0, 23.0 ],
					"text" : "svf~ 3000. 0.8"
				}

			}
, 			{
				"box" : 				{
					"fontname" : "Arial",
					"fontsize" : 13.0,
					"id" : "obj-45",
					"maxclass" : "newobj",
					"numinlets" : 3,
					"numoutlets" : 4,
					"outlettype" : [ "signal", "signal", "signal", "signal" ],
					"patching_rect" : [ 718.0, 351.0, 91.0, 23.0 ],
					"text" : "svf~ 2500. 0.8"
				}

			}
, 			{
				"box" : 				{
					"fontname" : "Arial",
					"fontsize" : 13.0,
					"id" : "obj-59",
					"maxclass" : "newobj",
					"numinlets" : 3,
					"numoutlets" : 4,
					"outlettype" : [ "signal", "signal", "signal", "signal" ],
					"patching_rect" : [ 605.5, 351.0, 91.0, 23.0 ],
					"text" : "svf~ 2000. 0.8"
				}

			}
, 			{
				"box" : 				{
					"id" : "obj-37",
					"maxclass" : "newobj",
					"numinlets" : 2,
					"numoutlets" : 1,
					"outlettype" : [ "float" ],
					"patching_rect" : [ 1237.75, 234.0, 29.5, 22.0 ],
					"text" : "* 8."
				}

			}
, 			{
				"box" : 				{
					"id" : "obj-15",
					"maxclass" : "newobj",
					"numinlets" : 2,
					"numoutlets" : 1,
					"outlettype" : [ "float" ],
					"patching_rect" : [ 935.25, 234.0, 29.5, 22.0 ],
					"text" : "* 5."
				}

			}
, 			{
				"box" : 				{
					"id" : "obj-23",
					"maxclass" : "newobj",
					"numinlets" : 2,
					"numoutlets" : 1,
					"outlettype" : [ "float" ],
					"patching_rect" : [ 1132.75, 234.0, 29.5, 22.0 ],
					"text" : "* 7."
				}

			}
, 			{
				"box" : 				{
					"id" : "obj-27",
					"maxclass" : "newobj",
					"numinlets" : 2,
					"numoutlets" : 1,
					"outlettype" : [ "float" ],
					"patching_rect" : [ 1036.75, 234.0, 29.5, 22.0 ],
					"text" : "* 6."
				}

			}
, 			{
				"box" : 				{
					"id" : "obj-7",
					"maxclass" : "newobj",
					"numinlets" : 2,
					"numoutlets" : 1,
					"outlettype" : [ "signal" ],
					"patching_rect" : [ 557.0, 585.0, 29.5, 22.0 ],
					"text" : "+~"
				}

			}
, 			{
				"box" : 				{
					"id" : "obj-2",
					"maxclass" : "newobj",
					"numinlets" : 2,
					"numoutlets" : 1,
					"outlettype" : [ "float" ],
					"patching_rect" : [ 606.75, 234.0, 29.5, 22.0 ],
					"text" : "* 2."
				}

			}
, 			{
				"box" : 				{
					"id" : "obj-4",
					"maxclass" : "newobj",
					"numinlets" : 2,
					"numoutlets" : 1,
					"outlettype" : [ "signal" ],
					"patching_rect" : [ 636.25, 435.0, 29.5, 22.0 ],
					"text" : "*~"
				}

			}
, 			{
				"box" : 				{
					"id" : "obj-5",
					"maxclass" : "toggle",
					"numinlets" : 1,
					"numoutlets" : 1,
					"outlettype" : [ "int" ],
					"parameter_enable" : 0,
					"patching_rect" : [ 664.25, 396.0, 24.0, 24.0 ]
				}

			}
, 			{
				"box" : 				{
					"id" : "obj-6",
					"maxclass" : "newobj",
					"numinlets" : 2,
					"numoutlets" : 1,
					"outlettype" : [ "signal" ],
					"patching_rect" : [ 605.5, 311.0, 52.0, 22.0 ],
					"text" : "phasor~"
				}

			}
, 			{
				"box" : 				{
					"domain" : [ 50.0, 5000.0 ],
					"id" : "obj-108",
					"maxclass" : "spectroscope~",
					"monochrome" : 0,
					"numinlets" : 2,
					"numoutlets" : 1,
					"outlettype" : [ "" ],
					"patching_rect" : [ 887.0, 673.5, 300.0, 100.0 ]
				}

			}
, 			{
				"box" : 				{
					"format" : 6,
					"id" : "obj-20",
					"maxclass" : "flonum",
					"numinlets" : 1,
					"numoutlets" : 2,
					"outlettype" : [ "", "bang" ],
					"parameter_enable" : 0,
					"patching_rect" : [ 517.75, 100.5, 50.0, 22.0 ]
				}

			}
, 			{
				"box" : 				{
					"id" : "obj-47",
					"maxclass" : "newobj",
					"numinlets" : 2,
					"numoutlets" : 1,
					"outlettype" : [ "float" ],
					"patching_rect" : [ 824.25, 234.0, 29.5, 22.0 ],
					"text" : "* 4."
				}

			}
, 			{
				"box" : 				{
					"id" : "obj-39",
					"maxclass" : "newobj",
					"numinlets" : 2,
					"numoutlets" : 1,
					"outlettype" : [ "float" ],
					"patching_rect" : [ 718.25, 234.0, 29.5, 22.0 ],
					"text" : "* 3."
				}

			}
, 			{
				"box" : 				{
					"id" : "obj-30",
					"maxclass" : "newobj",
					"numinlets" : 2,
					"numoutlets" : 1,
					"outlettype" : [ "signal" ],
					"patching_rect" : [ 822.75, 435.0, 29.5, 22.0 ],
					"text" : "*~"
				}

			}
, 			{
				"box" : 				{
					"id" : "obj-31",
					"maxclass" : "toggle",
					"numinlets" : 1,
					"numoutlets" : 1,
					"outlettype" : [ "int" ],
					"parameter_enable" : 0,
					"patching_rect" : [ 851.0, 396.0, 24.0, 24.0 ]
				}

			}
, 			{
				"box" : 				{
					"id" : "obj-32",
					"maxclass" : "newobj",
					"numinlets" : 2,
					"numoutlets" : 1,
					"outlettype" : [ "signal" ],
					"patching_rect" : [ 823.0, 311.0, 52.0, 22.0 ],
					"text" : "phasor~"
				}

			}
, 			{
				"box" : 				{
					"id" : "obj-24",
					"maxclass" : "newobj",
					"numinlets" : 2,
					"numoutlets" : 1,
					"outlettype" : [ "signal" ],
					"patching_rect" : [ 717.0, 435.0, 29.5, 22.0 ],
					"text" : "*~"
				}

			}
, 			{
				"box" : 				{
					"id" : "obj-25",
					"maxclass" : "toggle",
					"numinlets" : 1,
					"numoutlets" : 1,
					"outlettype" : [ "int" ],
					"parameter_enable" : 0,
					"patching_rect" : [ 745.0, 396.0, 24.0, 24.0 ]
				}

			}
, 			{
				"box" : 				{
					"id" : "obj-26",
					"maxclass" : "newobj",
					"numinlets" : 2,
					"numoutlets" : 1,
					"outlettype" : [ "signal" ],
					"patching_rect" : [ 717.0, 311.0, 52.0, 22.0 ],
					"text" : "phasor~"
				}

			}
, 			{
				"box" : 				{
					"id" : "obj-1",
					"maxclass" : "kslider",
					"numinlets" : 2,
					"numoutlets" : 2,
					"outlettype" : [ "int", "int" ],
					"parameter_enable" : 0,
					"patching_rect" : [ 517.75, 3.0, 364.0, 57.0 ]
				}

			}
, 			{
				"box" : 				{
					"calccount" : 4,
					"id" : "obj-18",
					"maxclass" : "scope~",
					"numinlets" : 2,
					"numoutlets" : 0,
					"patching_rect" : [ 962.0, 557.0, 248.0, 155.0 ]
				}

			}
, 			{
				"box" : 				{
					"id" : "obj-40",
					"maxclass" : "ezdac~",
					"numinlets" : 2,
					"numoutlets" : 0,
					"patching_rect" : [ 118.5, 712.0, 55.0, 55.0 ]
				}

			}
, 			{
				"box" : 				{
					"id" : "obj-17",
					"maxclass" : "newobj",
					"numinlets" : 2,
					"numoutlets" : 1,
					"outlettype" : [ "signal" ],
					"patching_rect" : [ 444.0, 585.0, 29.5, 22.0 ],
					"text" : "+~"
				}

			}
, 			{
				"box" : 				{
					"id" : "obj-16",
					"maxclass" : "newobj",
					"numinlets" : 1,
					"numoutlets" : 1,
					"outlettype" : [ "" ],
					"patching_rect" : [ 517.75, 69.0, 34.0, 22.0 ],
					"text" : "mtof"
				}

			}
, 			{
				"box" : 				{
					"id" : "obj-13",
					"maxclass" : "newobj",
					"numinlets" : 2,
					"numoutlets" : 1,
					"outlettype" : [ "signal" ],
					"patching_rect" : [ 543.75, 435.0, 29.5, 22.0 ],
					"text" : "*~"
				}

			}
, 			{
				"box" : 				{
					"id" : "obj-14",
					"maxclass" : "toggle",
					"numinlets" : 1,
					"numoutlets" : 1,
					"outlettype" : [ "int" ],
					"parameter_enable" : 0,
					"patching_rect" : [ 575.75, 396.0, 24.0, 24.0 ]
				}

			}
, 			{
				"box" : 				{
					"id" : "obj-3",
					"maxclass" : "newobj",
					"numinlets" : 2,
					"numoutlets" : 1,
					"outlettype" : [ "signal" ],
					"patching_rect" : [ 512.75, 311.0, 52.0, 22.0 ],
					"text" : "phasor~"
				}

			}
 ],
		"lines" : [ 			{
				"patchline" : 				{
					"destination" : [ "obj-16", 0 ],
					"source" : [ "obj-1", 0 ]
				}

			}
, 			{
				"patchline" : 				{
					"destination" : [ "obj-101", 0 ],
					"source" : [ "obj-100", 0 ]
				}

			}
, 			{
				"patchline" : 				{
					"destination" : [ "obj-7", 1 ],
					"source" : [ "obj-101", 0 ]
				}

			}
, 			{
				"patchline" : 				{
					"destination" : [ "obj-101", 1 ],
					"source" : [ "obj-102", 0 ]
				}

			}
, 			{
				"patchline" : 				{
					"destination" : [ "obj-100", 0 ],
					"source" : [ "obj-103", 0 ]
				}

			}
, 			{
				"patchline" : 				{
					"destination" : [ "obj-110", 0 ],
					"source" : [ "obj-104", 0 ]
				}

			}
, 			{
				"patchline" : 				{
					"destination" : [ "obj-107", 0 ],
					"source" : [ "obj-105", 0 ]
				}

			}
, 			{
				"patchline" : 				{
					"destination" : [ "obj-104", 0 ],
					"source" : [ "obj-106", 0 ]
				}

			}
, 			{
				"patchline" : 				{
					"destination" : [ "obj-17", 0 ],
					"source" : [ "obj-107", 0 ]
				}

			}
, 			{
				"patchline" : 				{
					"destination" : [ "obj-107", 1 ],
					"source" : [ "obj-109", 0 ]
				}

			}
, 			{
				"patchline" : 				{
					"destination" : [ "obj-105", 0 ],
					"source" : [ "obj-110", 0 ]
				}

			}
, 			{
				"patchline" : 				{
					"destination" : [ "obj-127", 1 ],
					"order" : 0,
					"source" : [ "obj-125", 0 ]
				}

			}
, 			{
				"patchline" : 				{
					"destination" : [ "obj-134", 1 ],
					"order" : 1,
					"source" : [ "obj-125", 0 ]
				}

			}
, 			{
				"patchline" : 				{
					"destination" : [ "obj-127", 0 ],
					"order" : 1,
					"source" : [ "obj-126", 0 ]
				}

			}
, 			{
				"patchline" : 				{
					"destination" : [ "obj-129", 1 ],
					"order" : 0,
					"source" : [ "obj-126", 0 ]
				}

			}
, 			{
				"patchline" : 				{
					"destination" : [ "obj-40", 1 ],
					"source" : [ "obj-127", 1 ]
				}

			}
, 			{
				"patchline" : 				{
					"destination" : [ "obj-40", 0 ],
					"source" : [ "obj-127", 0 ]
				}

			}
, 			{
				"patchline" : 				{
					"destination" : [ "obj-127", 1 ],
					"source" : [ "obj-129", 0 ]
				}

			}
, 			{
				"patchline" : 				{
					"destination" : [ "obj-17", 0 ],
					"source" : [ "obj-13", 0 ]
				}

			}
, 			{
				"patchline" : 				{
					"destination" : [ "obj-129", 0 ],
					"order" : 0,
					"source" : [ "obj-131", 0 ]
				}

			}
, 			{
				"patchline" : 				{
					"destination" : [ "obj-134", 0 ],
					"order" : 1,
					"source" : [ "obj-131", 0 ]
				}

			}
, 			{
				"patchline" : 				{
					"destination" : [ "obj-127", 0 ],
					"source" : [ "obj-134", 0 ]
				}

			}
, 			{
				"patchline" : 				{
					"destination" : [ "obj-13", 1 ],
					"source" : [ "obj-14", 0 ]
				}

			}
, 			{
				"patchline" : 				{
					"destination" : [ "obj-106", 0 ],
					"order" : 12,
					"source" : [ "obj-146", 0 ]
				}

			}
, 			{
				"patchline" : 				{
					"destination" : [ "obj-15", 0 ],
					"order" : 3,
					"source" : [ "obj-146", 0 ]
				}

			}
, 			{
				"patchline" : 				{
					"destination" : [ "obj-2", 0 ],
					"order" : 6,
					"source" : [ "obj-146", 0 ]
				}

			}
, 			{
				"patchline" : 				{
					"destination" : [ "obj-23", 0 ],
					"order" : 1,
					"source" : [ "obj-146", 0 ]
				}

			}
, 			{
				"patchline" : 				{
					"destination" : [ "obj-27", 0 ],
					"order" : 2,
					"source" : [ "obj-146", 0 ]
				}

			}
, 			{
				"patchline" : 				{
					"destination" : [ "obj-37", 0 ],
					"order" : 0,
					"source" : [ "obj-146", 0 ]
				}

			}
, 			{
				"patchline" : 				{
					"destination" : [ "obj-39", 0 ],
					"order" : 5,
					"source" : [ "obj-146", 0 ]
				}

			}
, 			{
				"patchline" : 				{
					"destination" : [ "obj-47", 0 ],
					"order" : 4,
					"source" : [ "obj-146", 0 ]
				}

			}
, 			{
				"patchline" : 				{
					"destination" : [ "obj-48", 0 ],
					"order" : 7,
					"source" : [ "obj-146", 0 ]
				}

			}
, 			{
				"patchline" : 				{
					"destination" : [ "obj-49", 0 ],
					"order" : 8,
					"source" : [ "obj-146", 0 ]
				}

			}
, 			{
				"patchline" : 				{
					"destination" : [ "obj-68", 0 ],
					"order" : 9,
					"source" : [ "obj-146", 0 ]
				}

			}
, 			{
				"patchline" : 				{
					"destination" : [ "obj-74", 0 ],
					"order" : 10,
					"source" : [ "obj-146", 0 ]
				}

			}
, 			{
				"patchline" : 				{
					"destination" : [ "obj-80", 0 ],
					"order" : 11,
					"source" : [ "obj-146", 0 ]
				}

			}
, 			{
				"patchline" : 				{
					"destination" : [ "obj-158", 0 ],
					"order" : 1,
					"source" : [ "obj-148", 0 ]
				}

			}
, 			{
				"patchline" : 				{
					"destination" : [ "obj-164", 0 ],
					"order" : 0,
					"source" : [ "obj-148", 0 ]
				}

			}
, 			{
				"patchline" : 				{
					"destination" : [ "obj-84", 0 ],
					"source" : [ "obj-15", 0 ]
				}

			}
, 			{
				"patchline" : 				{
					"destination" : [ "obj-148", 0 ],
					"source" : [ "obj-154", 0 ]
				}

			}
, 			{
				"patchline" : 				{
					"destination" : [ "obj-163", 1 ],
					"source" : [ "obj-158", 0 ]
				}

			}
, 			{
				"patchline" : 				{
					"destination" : [ "obj-20", 0 ],
					"source" : [ "obj-16", 0 ]
				}

			}
, 			{
				"patchline" : 				{
					"destination" : [ "obj-146", 0 ],
					"source" : [ "obj-163", 0 ]
				}

			}
, 			{
				"patchline" : 				{
					"destination" : [ "obj-166", 0 ],
					"source" : [ "obj-164", 0 ]
				}

			}
, 			{
				"patchline" : 				{
					"destination" : [ "obj-163", 0 ],
					"source" : [ "obj-166", 0 ]
				}

			}
, 			{
				"patchline" : 				{
					"destination" : [ "obj-108", 0 ],
					"order" : 1,
					"source" : [ "obj-17", 0 ]
				}

			}
, 			{
				"patchline" : 				{
					"destination" : [ "obj-123", 0 ],
					"order" : 2,
					"source" : [ "obj-17", 0 ]
				}

			}
, 			{
				"patchline" : 				{
					"destination" : [ "obj-18", 0 ],
					"order" : 0,
					"source" : [ "obj-17", 0 ]
				}

			}
, 			{
				"patchline" : 				{
					"destination" : [ "obj-110", 1 ],
					"source" : [ "obj-170", 0 ]
				}

			}
, 			{
				"patchline" : 				{
					"destination" : [ "obj-83", 1 ],
					"source" : [ "obj-171", 0 ]
				}

			}
, 			{
				"patchline" : 				{
					"destination" : [ "obj-77", 1 ],
					"source" : [ "obj-172", 0 ]
				}

			}
, 			{
				"patchline" : 				{
					"destination" : [ "obj-71", 1 ],
					"source" : [ "obj-173", 0 ]
				}

			}
, 			{
				"patchline" : 				{
					"destination" : [ "obj-52", 1 ],
					"source" : [ "obj-174", 0 ]
				}

			}
, 			{
				"patchline" : 				{
					"destination" : [ "obj-175", 0 ],
					"source" : [ "obj-177", 0 ]
				}

			}
, 			{
				"patchline" : 				{
					"destination" : [ "obj-3", 1 ],
					"source" : [ "obj-178", 0 ]
				}

			}
, 			{
				"patchline" : 				{
					"destination" : [ "obj-6", 1 ],
					"source" : [ "obj-179", 0 ]
				}

			}
, 			{
				"patchline" : 				{
					"destination" : [ "obj-26", 1 ],
					"source" : [ "obj-180", 0 ]
				}

			}
, 			{
				"patchline" : 				{
					"destination" : [ "obj-32", 1 ],
					"source" : [ "obj-181", 0 ]
				}

			}
, 			{
				"patchline" : 				{
					"destination" : [ "obj-88", 1 ],
					"source" : [ "obj-182", 0 ]
				}

			}
, 			{
				"patchline" : 				{
					"destination" : [ "obj-93", 1 ],
					"source" : [ "obj-183", 0 ]
				}

			}
, 			{
				"patchline" : 				{
					"destination" : [ "obj-98", 1 ],
					"source" : [ "obj-184", 0 ]
				}

			}
, 			{
				"patchline" : 				{
					"destination" : [ "obj-103", 1 ],
					"source" : [ "obj-185", 0 ]
				}

			}
, 			{
				"patchline" : 				{
					"destination" : [ "obj-58", 0 ],
					"source" : [ "obj-2", 0 ]
				}

			}
, 			{
				"patchline" : 				{
					"destination" : [ "obj-163", 0 ],
					"source" : [ "obj-20", 0 ]
				}

			}
, 			{
				"patchline" : 				{
					"destination" : [ "obj-94", 0 ],
					"source" : [ "obj-23", 0 ]
				}

			}
, 			{
				"patchline" : 				{
					"destination" : [ "obj-7", 0 ],
					"source" : [ "obj-24", 0 ]
				}

			}
, 			{
				"patchline" : 				{
					"destination" : [ "obj-24", 1 ],
					"source" : [ "obj-25", 0 ]
				}

			}
, 			{
				"patchline" : 				{
					"destination" : [ "obj-45", 0 ],
					"source" : [ "obj-26", 0 ]
				}

			}
, 			{
				"patchline" : 				{
					"destination" : [ "obj-89", 0 ],
					"source" : [ "obj-27", 0 ]
				}

			}
, 			{
				"patchline" : 				{
					"destination" : [ "obj-54", 0 ],
					"source" : [ "obj-3", 0 ]
				}

			}
, 			{
				"patchline" : 				{
					"destination" : [ "obj-7", 1 ],
					"source" : [ "obj-30", 0 ]
				}

			}
, 			{
				"patchline" : 				{
					"destination" : [ "obj-30", 1 ],
					"source" : [ "obj-31", 0 ]
				}

			}
, 			{
				"patchline" : 				{
					"destination" : [ "obj-46", 0 ],
					"source" : [ "obj-32", 0 ]
				}

			}
, 			{
				"patchline" : 				{
					"destination" : [ "obj-99", 0 ],
					"source" : [ "obj-37", 0 ]
				}

			}
, 			{
				"patchline" : 				{
					"destination" : [ "obj-60", 0 ],
					"source" : [ "obj-39", 0 ]
				}

			}
, 			{
				"patchline" : 				{
					"destination" : [ "obj-17", 1 ],
					"source" : [ "obj-4", 0 ]
				}

			}
, 			{
				"patchline" : 				{
					"destination" : [ "obj-24", 0 ],
					"source" : [ "obj-45", 0 ]
				}

			}
, 			{
				"patchline" : 				{
					"destination" : [ "obj-30", 0 ],
					"source" : [ "obj-46", 0 ]
				}

			}
, 			{
				"patchline" : 				{
					"destination" : [ "obj-62", 0 ],
					"source" : [ "obj-47", 0 ]
				}

			}
, 			{
				"patchline" : 				{
					"destination" : [ "obj-57", 0 ],
					"source" : [ "obj-48", 0 ]
				}

			}
, 			{
				"patchline" : 				{
					"destination" : [ "obj-56", 0 ],
					"source" : [ "obj-49", 0 ]
				}

			}
, 			{
				"patchline" : 				{
					"destination" : [ "obj-4", 1 ],
					"source" : [ "obj-5", 0 ]
				}

			}
, 			{
				"patchline" : 				{
					"destination" : [ "obj-7", 1 ],
					"source" : [ "obj-50", 0 ]
				}

			}
, 			{
				"patchline" : 				{
					"destination" : [ "obj-50", 1 ],
					"source" : [ "obj-51", 0 ]
				}

			}
, 			{
				"patchline" : 				{
					"destination" : [ "obj-55", 0 ],
					"source" : [ "obj-52", 0 ]
				}

			}
, 			{
				"patchline" : 				{
					"destination" : [ "obj-13", 0 ],
					"source" : [ "obj-54", 0 ]
				}

			}
, 			{
				"patchline" : 				{
					"destination" : [ "obj-50", 0 ],
					"source" : [ "obj-55", 0 ]
				}

			}
, 			{
				"patchline" : 				{
					"destination" : [ "obj-52", 0 ],
					"source" : [ "obj-56", 0 ]
				}

			}
, 			{
				"patchline" : 				{
					"destination" : [ "obj-3", 0 ],
					"source" : [ "obj-57", 0 ]
				}

			}
, 			{
				"patchline" : 				{
					"destination" : [ "obj-6", 0 ],
					"source" : [ "obj-58", 0 ]
				}

			}
, 			{
				"patchline" : 				{
					"destination" : [ "obj-4", 0 ],
					"source" : [ "obj-59", 0 ]
				}

			}
, 			{
				"patchline" : 				{
					"destination" : [ "obj-59", 0 ],
					"source" : [ "obj-6", 0 ]
				}

			}
, 			{
				"patchline" : 				{
					"destination" : [ "obj-26", 0 ],
					"source" : [ "obj-60", 0 ]
				}

			}
, 			{
				"patchline" : 				{
					"destination" : [ "obj-32", 0 ],
					"source" : [ "obj-62", 0 ]
				}

			}
, 			{
				"patchline" : 				{
					"destination" : [ "obj-71", 0 ],
					"source" : [ "obj-66", 0 ]
				}

			}
, 			{
				"patchline" : 				{
					"destination" : [ "obj-69", 0 ],
					"source" : [ "obj-67", 0 ]
				}

			}
, 			{
				"patchline" : 				{
					"destination" : [ "obj-66", 0 ],
					"source" : [ "obj-68", 0 ]
				}

			}
, 			{
				"patchline" : 				{
					"destination" : [ "obj-17", 1 ],
					"source" : [ "obj-69", 0 ]
				}

			}
, 			{
				"patchline" : 				{
					"destination" : [ "obj-108", 0 ],
					"order" : 1,
					"source" : [ "obj-7", 0 ]
				}

			}
, 			{
				"patchline" : 				{
					"destination" : [ "obj-124", 0 ],
					"order" : 2,
					"source" : [ "obj-7", 0 ]
				}

			}
, 			{
				"patchline" : 				{
					"destination" : [ "obj-18", 0 ],
					"order" : 0,
					"source" : [ "obj-7", 0 ]
				}

			}
, 			{
				"patchline" : 				{
					"destination" : [ "obj-69", 1 ],
					"source" : [ "obj-70", 0 ]
				}

			}
, 			{
				"patchline" : 				{
					"destination" : [ "obj-67", 0 ],
					"source" : [ "obj-71", 0 ]
				}

			}
, 			{
				"patchline" : 				{
					"destination" : [ "obj-77", 0 ],
					"source" : [ "obj-72", 0 ]
				}

			}
, 			{
				"patchline" : 				{
					"destination" : [ "obj-75", 0 ],
					"source" : [ "obj-73", 0 ]
				}

			}
, 			{
				"patchline" : 				{
					"destination" : [ "obj-72", 0 ],
					"source" : [ "obj-74", 0 ]
				}

			}
, 			{
				"patchline" : 				{
					"destination" : [ "obj-7", 0 ],
					"source" : [ "obj-75", 0 ]
				}

			}
, 			{
				"patchline" : 				{
					"destination" : [ "obj-75", 1 ],
					"source" : [ "obj-76", 0 ]
				}

			}
, 			{
				"patchline" : 				{
					"destination" : [ "obj-73", 0 ],
					"source" : [ "obj-77", 0 ]
				}

			}
, 			{
				"patchline" : 				{
					"destination" : [ "obj-83", 0 ],
					"source" : [ "obj-78", 0 ]
				}

			}
, 			{
				"patchline" : 				{
					"destination" : [ "obj-81", 0 ],
					"source" : [ "obj-79", 0 ]
				}

			}
, 			{
				"patchline" : 				{
					"destination" : [ "obj-78", 0 ],
					"source" : [ "obj-80", 0 ]
				}

			}
, 			{
				"patchline" : 				{
					"destination" : [ "obj-17", 0 ],
					"source" : [ "obj-81", 0 ]
				}

			}
, 			{
				"patchline" : 				{
					"destination" : [ "obj-81", 1 ],
					"source" : [ "obj-82", 0 ]
				}

			}
, 			{
				"patchline" : 				{
					"destination" : [ "obj-79", 0 ],
					"source" : [ "obj-83", 0 ]
				}

			}
, 			{
				"patchline" : 				{
					"destination" : [ "obj-88", 0 ],
					"source" : [ "obj-84", 0 ]
				}

			}
, 			{
				"patchline" : 				{
					"destination" : [ "obj-86", 0 ],
					"source" : [ "obj-85", 0 ]
				}

			}
, 			{
				"patchline" : 				{
					"destination" : [ "obj-17", 0 ],
					"source" : [ "obj-86", 0 ]
				}

			}
, 			{
				"patchline" : 				{
					"destination" : [ "obj-86", 1 ],
					"source" : [ "obj-87", 0 ]
				}

			}
, 			{
				"patchline" : 				{
					"destination" : [ "obj-85", 0 ],
					"source" : [ "obj-88", 0 ]
				}

			}
, 			{
				"patchline" : 				{
					"destination" : [ "obj-93", 0 ],
					"source" : [ "obj-89", 0 ]
				}

			}
, 			{
				"patchline" : 				{
					"destination" : [ "obj-91", 0 ],
					"source" : [ "obj-90", 0 ]
				}

			}
, 			{
				"patchline" : 				{
					"destination" : [ "obj-7", 0 ],
					"source" : [ "obj-91", 0 ]
				}

			}
, 			{
				"patchline" : 				{
					"destination" : [ "obj-91", 1 ],
					"source" : [ "obj-92", 0 ]
				}

			}
, 			{
				"patchline" : 				{
					"destination" : [ "obj-90", 0 ],
					"source" : [ "obj-93", 0 ]
				}

			}
, 			{
				"patchline" : 				{
					"destination" : [ "obj-98", 0 ],
					"source" : [ "obj-94", 0 ]
				}

			}
, 			{
				"patchline" : 				{
					"destination" : [ "obj-96", 0 ],
					"source" : [ "obj-95", 0 ]
				}

			}
, 			{
				"patchline" : 				{
					"destination" : [ "obj-17", 1 ],
					"source" : [ "obj-96", 0 ]
				}

			}
, 			{
				"patchline" : 				{
					"destination" : [ "obj-96", 1 ],
					"source" : [ "obj-97", 0 ]
				}

			}
, 			{
				"patchline" : 				{
					"destination" : [ "obj-95", 0 ],
					"source" : [ "obj-98", 0 ]
				}

			}
, 			{
				"patchline" : 				{
					"destination" : [ "obj-103", 0 ],
					"source" : [ "obj-99", 0 ]
				}

			}
 ],
		"parameters" : 		{
			"obj-127" : [ "live.gain~", "live.gain~", 0 ],
			"parameterbanks" : 			{

			}
,
			"inherited_shortname" : 1
		}
,
		"dependency_cache" : [  ],
		"autosave" : 0
	}

}
