{
	"patcher" : 	{
		"fileversion" : 1,
		"appversion" : 		{
			"major" : 8,
			"minor" : 1,
			"revision" : 11,
			"architecture" : "x64",
			"modernui" : 1
		}
,
		"classnamespace" : "box",
		"rect" : [ 38.0, 79.0, 793.0, 687.0 ],
		"bglocked" : 0,
		"openinpresentation" : 0,
		"default_fontsize" : 12.0,
		"default_fontface" : 0,
		"default_fontname" : "Arial",
		"gridonopen" : 1,
		"gridsize" : [ 15.0, 15.0 ],
		"gridsnaponopen" : 1,
		"objectsnaponopen" : 1,
		"statusbarvisible" : 2,
		"toolbarvisible" : 1,
		"lefttoolbarpinned" : 0,
		"toptoolbarpinned" : 0,
		"righttoolbarpinned" : 0,
		"bottomtoolbarpinned" : 0,
		"toolbars_unpinned_last_save" : 0,
		"tallnewobj" : 0,
		"boxanimatetime" : 200,
		"enablehscroll" : 1,
		"enablevscroll" : 1,
		"devicewidth" : 0.0,
		"description" : "",
		"digest" : "",
		"tags" : "",
		"style" : "",
		"subpatcher_template" : "",
		"assistshowspatchername" : 0,
		"boxes" : [ 			{
				"box" : 				{
					"fontname" : "Times Roman",
					"fontsize" : 18.0,
					"id" : "obj-2",
					"maxclass" : "comment",
					"numinlets" : 1,
					"numoutlets" : 0,
					"patching_rect" : [ 127.0, 33.0, 105.0, 24.0 ],
					"text" : "Frequency"
				}

			}
, 			{
				"box" : 				{
					"fontname" : "Comic Sans MS",
					"fontsize" : 9.0,
					"id" : "obj-119",
					"maxclass" : "message",
					"numinlets" : 2,
					"numoutlets" : 1,
					"outlettype" : [ "" ],
					"patching_rect" : [ 696.0, 573.0, 30.5, 21.0 ],
					"text" : "486"
				}

			}
, 			{
				"box" : 				{
					"fontname" : "Comic Sans MS",
					"fontsize" : 9.0,
					"id" : "obj-110",
					"maxclass" : "message",
					"numinlets" : 2,
					"numoutlets" : 1,
					"outlettype" : [ "" ],
					"patching_rect" : [ 559.0, 573.0, 25.0, 21.0 ],
					"text" : "320"
				}

			}
, 			{
				"box" : 				{
					"fontname" : "Comic Sans MS",
					"fontsize" : 9.0,
					"id" : "obj-109",
					"maxclass" : "message",
					"numinlets" : 2,
					"numoutlets" : 1,
					"outlettype" : [ "" ],
					"patching_rect" : [ 524.0, 573.0, 27.5, 21.0 ],
					"text" : "288"
				}

			}
, 			{
				"box" : 				{
					"id" : "obj-102",
					"maxclass" : "button",
					"numinlets" : 1,
					"numoutlets" : 1,
					"outlettype" : [ "bang" ],
					"parameter_enable" : 0,
					"patching_rect" : [ 731.0, 544.0, 15.0, 15.0 ]
				}

			}
, 			{
				"box" : 				{
					"id" : "obj-103",
					"maxclass" : "button",
					"numinlets" : 1,
					"numoutlets" : 1,
					"outlettype" : [ "bang" ],
					"parameter_enable" : 0,
					"patching_rect" : [ 696.0, 544.0, 15.0, 15.0 ]
				}

			}
, 			{
				"box" : 				{
					"id" : "obj-104",
					"maxclass" : "button",
					"numinlets" : 1,
					"numoutlets" : 1,
					"outlettype" : [ "bang" ],
					"parameter_enable" : 0,
					"patching_rect" : [ 661.0, 544.0, 15.0, 15.0 ]
				}

			}
, 			{
				"box" : 				{
					"id" : "obj-89",
					"maxclass" : "button",
					"numinlets" : 1,
					"numoutlets" : 1,
					"outlettype" : [ "bang" ],
					"parameter_enable" : 0,
					"patching_rect" : [ 601.0, 119.0, 20.0, 20.0 ]
				}

			}
, 			{
				"box" : 				{
					"id" : "obj-88",
					"maxclass" : "button",
					"numinlets" : 1,
					"numoutlets" : 1,
					"outlettype" : [ "bang" ],
					"parameter_enable" : 0,
					"patching_rect" : [ 498.0, 119.0, 20.0, 20.0 ]
				}

			}
, 			{
				"box" : 				{
					"id" : "obj-87",
					"maxclass" : "button",
					"numinlets" : 1,
					"numoutlets" : 1,
					"outlettype" : [ "bang" ],
					"parameter_enable" : 0,
					"patching_rect" : [ 397.0, 119.0, 20.0, 20.0 ]
				}

			}
, 			{
				"box" : 				{
					"id" : "obj-86",
					"maxclass" : "button",
					"numinlets" : 1,
					"numoutlets" : 1,
					"outlettype" : [ "bang" ],
					"parameter_enable" : 0,
					"patching_rect" : [ 295.0, 119.0, 20.0, 20.0 ]
				}

			}
, 			{
				"box" : 				{
					"id" : "obj-85",
					"maxclass" : "button",
					"numinlets" : 1,
					"numoutlets" : 1,
					"outlettype" : [ "bang" ],
					"parameter_enable" : 0,
					"patching_rect" : [ 193.0, 119.0, 20.0, 20.0 ]
				}

			}
, 			{
				"box" : 				{
					"id" : "obj-84",
					"maxclass" : "button",
					"numinlets" : 1,
					"numoutlets" : 1,
					"outlettype" : [ "bang" ],
					"parameter_enable" : 0,
					"patching_rect" : [ 90.0, 119.0, 20.0, 20.0 ]
				}

			}
, 			{
				"box" : 				{
					"bgcolor" : [ 0.866667, 0.866667, 0.866667, 1.0 ],
					"fontname" : "Arial",
					"fontsize" : 9.0,
					"htricolor" : [ 0.87, 0.82, 0.24, 1.0 ],
					"id" : "obj-3",
					"maxclass" : "number",
					"numinlets" : 1,
					"numoutlets" : 2,
					"outlettype" : [ "", "bang" ],
					"parameter_enable" : 0,
					"patching_rect" : [ 417.0, 491.0, 35.0, 19.0 ],
					"textcolor" : [ 0.0, 0.0, 0.0, 1.0 ],
					"tricolor" : [ 0.75, 0.75, 0.75, 1.0 ],
					"triscale" : 0.9
				}

			}
, 			{
				"box" : 				{
					"fontname" : "Arial",
					"fontsize" : 9.0,
					"id" : "obj-4",
					"maxclass" : "newobj",
					"numinlets" : 0,
					"numoutlets" : 1,
					"outlettype" : [ "" ],
					"patching_rect" : [ 356.0, 4.0, 55.0, 19.0 ],
					"text" : "r playnote"
				}

			}
, 			{
				"box" : 				{
					"fontname" : "Arial",
					"fontsize" : 9.0,
					"id" : "obj-5",
					"maxclass" : "newobj",
					"numinlets" : 1,
					"numoutlets" : 0,
					"patching_rect" : [ 430.0, 524.0, 55.0, 19.0 ],
					"text" : "s playnote"
				}

			}
, 			{
				"box" : 				{
					"fontname" : "Arial",
					"fontsize" : 9.0,
					"id" : "obj-6",
					"maxclass" : "newobj",
					"numinlets" : 10,
					"numoutlets" : 10,
					"outlettype" : [ "bang", "bang", "bang", "bang", "bang", "bang", "bang", "bang", "bang", "" ],
					"patching_rect" : [ 455.0, 492.0, 327.0, 19.0 ],
					"text" : "sel 32 97 115 100 102 103 104 106 107"
				}

			}
, 			{
				"box" : 				{
					"fontname" : "Arial",
					"fontsize" : 9.0,
					"id" : "obj-7",
					"maxclass" : "newobj",
					"numinlets" : 0,
					"numoutlets" : 4,
					"outlettype" : [ "int", "int", "int", "int" ],
					"patching_rect" : [ 456.0, 466.0, 46.0, 19.0 ],
					"text" : "key"
				}

			}
, 			{
				"box" : 				{
					"hidden" : 1,
					"id" : "obj-8",
					"maxclass" : "button",
					"numinlets" : 1,
					"numoutlets" : 1,
					"outlettype" : [ "bang" ],
					"parameter_enable" : 0,
					"patching_rect" : [ 92.0, 74.0, 15.0, 15.0 ]
				}

			}
, 			{
				"box" : 				{
					"fontname" : "Comic Sans MS",
					"fontsize" : 9.0,
					"id" : "obj-9",
					"maxclass" : "message",
					"numinlets" : 2,
					"numoutlets" : 1,
					"outlettype" : [ "" ],
					"patching_rect" : [ 731.0, 573.0, 26.0, 21.0 ],
					"text" : "512"
				}

			}
, 			{
				"box" : 				{
					"fontname" : "Comic Sans MS",
					"fontsize" : 9.0,
					"id" : "obj-10",
					"maxclass" : "message",
					"numinlets" : 2,
					"numoutlets" : 1,
					"outlettype" : [ "" ],
					"patching_rect" : [ 661.0, 572.0, 27.5, 21.0 ],
					"text" : "432"
				}

			}
, 			{
				"box" : 				{
					"fontname" : "Comic Sans MS",
					"fontsize" : 9.0,
					"id" : "obj-11",
					"maxclass" : "message",
					"numinlets" : 2,
					"numoutlets" : 1,
					"outlettype" : [ "" ],
					"patching_rect" : [ 627.0, 573.0, 26.0, 21.0 ],
					"text" : "384"
				}

			}
, 			{
				"box" : 				{
					"fontname" : "Comic Sans MS",
					"fontsize" : 9.0,
					"id" : "obj-12",
					"maxclass" : "message",
					"numinlets" : 2,
					"numoutlets" : 1,
					"outlettype" : [ "" ],
					"patching_rect" : [ 591.0, 573.0, 24.0, 21.0 ],
					"text" : "341"
				}

			}
, 			{
				"box" : 				{
					"fontname" : "Comic Sans MS",
					"fontsize" : 9.0,
					"id" : "obj-13",
					"maxclass" : "message",
					"numinlets" : 2,
					"numoutlets" : 1,
					"outlettype" : [ "" ],
					"patching_rect" : [ 489.0, 573.0, 26.0, 21.0 ],
					"text" : "256"
				}

			}
, 			{
				"box" : 				{
					"id" : "obj-14",
					"maxclass" : "button",
					"numinlets" : 1,
					"numoutlets" : 1,
					"outlettype" : [ "bang" ],
					"parameter_enable" : 0,
					"patching_rect" : [ 627.0, 544.0, 15.0, 15.0 ]
				}

			}
, 			{
				"box" : 				{
					"id" : "obj-15",
					"maxclass" : "button",
					"numinlets" : 1,
					"numoutlets" : 1,
					"outlettype" : [ "bang" ],
					"parameter_enable" : 0,
					"patching_rect" : [ 591.0, 544.0, 15.0, 15.0 ]
				}

			}
, 			{
				"box" : 				{
					"id" : "obj-16",
					"maxclass" : "button",
					"numinlets" : 1,
					"numoutlets" : 1,
					"outlettype" : [ "bang" ],
					"parameter_enable" : 0,
					"patching_rect" : [ 559.0, 544.0, 15.0, 15.0 ]
				}

			}
, 			{
				"box" : 				{
					"id" : "obj-17",
					"maxclass" : "button",
					"numinlets" : 1,
					"numoutlets" : 1,
					"outlettype" : [ "bang" ],
					"parameter_enable" : 0,
					"patching_rect" : [ 524.0, 544.0, 15.0, 15.0 ]
				}

			}
, 			{
				"box" : 				{
					"id" : "obj-18",
					"maxclass" : "button",
					"numinlets" : 1,
					"numoutlets" : 1,
					"outlettype" : [ "bang" ],
					"parameter_enable" : 0,
					"patching_rect" : [ 489.0, 544.0, 15.0, 15.0 ]
				}

			}
, 			{
				"box" : 				{
					"fontname" : "Comic Sans MS",
					"fontsize" : 9.0,
					"id" : "obj-25",
					"maxclass" : "newobj",
					"numinlets" : 1,
					"numoutlets" : 0,
					"patching_rect" : [ 595.0, 644.0, 35.0, 21.0 ],
					"text" : "s freq"
				}

			}
, 			{
				"box" : 				{
					"fontname" : "Times Roman",
					"fontsize" : 14.0,
					"id" : "obj-26",
					"maxclass" : "comment",
					"numinlets" : 1,
					"numoutlets" : 0,
					"patching_rect" : [ 36.0, 570.5, 140.0, 20.0 ],
					"text" : "Choose a complex tone"
				}

			}
, 			{
				"box" : 				{
					"fontname" : "Courier",
					"fontsize" : 10.0,
					"hidden" : 1,
					"id" : "obj-27",
					"maxclass" : "message",
					"numinlets" : 2,
					"numoutlets" : 1,
					"outlettype" : [ "" ],
					"patching_rect" : [ 55.0, 405.0, 15.0, 18.0 ],
					"text" : "1"
				}

			}
, 			{
				"box" : 				{
					"bubblesize" : 20,
					"id" : "obj-28",
					"maxclass" : "preset",
					"numinlets" : 1,
					"numoutlets" : 4,
					"outlettype" : [ "preset", "int", "preset", "int" ],
					"patching_rect" : [ 45.5, 439.0, 121.0, 125.0 ],
					"preset_data" : [ 						{
							"number" : 1,
							"data" : [ 5, "obj-79", "number", "int", 1000, 5, "obj-75", "flonum", "float", 0.250001, 5, "obj-68", "flonum", "float", 1.0, 5, "obj-67", "flonum", "float", 0.0, 5, "obj-66", "flonum", "float", 0.0, 5, "obj-65", "flonum", "float", 3.0, 5, "obj-64", "flonum", "float", 5.0, 5, "obj-63", "flonum", "float", 0.0, 5, "obj-62", "flonum", "float", 0.0, 5, "obj-61", "flonum", "float", 4.0, 5, "obj-60", "flonum", "float", 7.0, 5, "obj-59", "flonum", "float", 0.0, 5, "obj-58", "flonum", "float", 0.0, 5, "obj-57", "flonum", "float", 8.0, 4, "obj-56", "function", "clear", 6, "obj-56", "function", "add", 0.0, 0.0, 6, "obj-56", "function", "add", 45.454548000000003, 1.0, 6, "obj-56", "function", "add", 193.181824000000006, 0.196721, 6, "obj-56", "function", "add", 920.454590000000053, 0.704918, 6, "obj-56", "function", "add", 1011.363647000000014, 0.0, 4, "obj-55", "function", "clear", 6, "obj-55", "function", "add", 0.0, 0.0, 6, "obj-55", "function", "add", 556.818175999999994, 1.0, 6, "obj-55", "function", "add", 818.181824000000006, 0.114754, 6, "obj-55", "function", "add", 1000.0, 0.0, 4, "obj-54", "function", "clear", 6, "obj-54", "function", "add", 0.0, 0.0, 6, "obj-54", "function", "add", 45.454548000000003, 0.885246, 6, "obj-54", "function", "add", 500.0, 0.786885, 6, "obj-54", "function", "add", 704.545409999999947, 0.360656, 6, "obj-54", "function", "add", 1000.0, 0.0, 4, "obj-53", "function", "clear", 6, "obj-53", "function", "add", 0.0, 0.0, 6, "obj-53", "function", "add", 159.090912000000003, 1.0, 6, "obj-53", "function", "add", 534.090942000000041, 0.147541, 6, "obj-53", "function", "add", 795.454590000000053, 0.868852, 6, "obj-53", "function", "add", 1000.0, 0.0, 4, "obj-52", "function", "clear", 6, "obj-52", "function", "add", 0.0, 0.0, 6, "obj-52", "function", "add", 545.454590000000053, 1.0, 6, "obj-52", "function", "add", 931.818236999999954, 0.721311, 6, "obj-52", "function", "add", 1000.0, 0.0, 4, "obj-51", "function", "clear", 6, "obj-51", "function", "add", 0.0, 0.0, 6, "obj-51", "function", "add", 22.727271999999999, 1.0, 6, "obj-51", "function", "add", 761.363647000000014, 0.491803, 6, "obj-51", "function", "add", 1000.0, 0.0, 5, "obj-50", "flonum", "float", 440.0 ]
						}
, 						{
							"number" : 2,
							"data" : [ 5, "obj-79", "number", "int", 2000, 5, "obj-75", "flonum", "float", 0.15, 5, "obj-68", "flonum", "float", 1.0, 5, "obj-67", "flonum", "float", 0.0, 5, "obj-66", "flonum", "float", 0.0, 5, "obj-65", "flonum", "float", 2.0, 5, "obj-64", "flonum", "float", 8.0, 5, "obj-63", "flonum", "float", 0.0, 5, "obj-62", "flonum", "float", 0.0, 5, "obj-61", "flonum", "float", 4.0, 5, "obj-60", "flonum", "float", 16.0, 5, "obj-59", "flonum", "float", 0.0, 5, "obj-58", "flonum", "float", 0.0, 5, "obj-57", "flonum", "float", 32.0, 4, "obj-56", "function", "clear", 6, "obj-56", "function", "add", 0.0, 0.0, 6, "obj-56", "function", "add", 45.454548000000003, 1.0, 6, "obj-56", "function", "add", 431.818206999999973, 0.114754, 6, "obj-56", "function", "add", 1045.454590000000053, 0.295082, 6, "obj-56", "function", "add", 2022.727294999999913, 0.0, 4, "obj-55", "function", "clear", 6, "obj-55", "function", "add", 0.0, 0.0, 6, "obj-55", "function", "add", 45.454548000000003, 1.0, 6, "obj-55", "function", "add", 636.363647000000014, 0.393443, 6, "obj-55", "function", "add", 1636.363646999999901, 0.114754, 6, "obj-55", "function", "add", 2000.0, 0.0, 4, "obj-54", "function", "clear", 6, "obj-54", "function", "add", 0.0, 0.0, 6, "obj-54", "function", "add", 68.181824000000006, 1.0, 6, "obj-54", "function", "add", 954.54547100000002, 0.770492, 6, "obj-54", "function", "add", 1454.545532000000094, 0.213115, 6, "obj-54", "function", "add", 2000.0, 0.0, 4, "obj-53", "function", "clear", 6, "obj-53", "function", "add", 0.0, 0.0, 6, "obj-53", "function", "add", 363.636383000000023, 0.819672, 6, "obj-53", "function", "add", 1295.454590000000053, 0.426229, 6, "obj-53", "function", "add", 1500.0, 0.491803, 6, "obj-53", "function", "add", 2000.0, 0.0, 4, "obj-52", "function", "clear", 6, "obj-52", "function", "add", 0.0, 0.0, 6, "obj-52", "function", "add", 45.454548000000003, 1.0, 6, "obj-52", "function", "add", 1704.545532000000094, 0.590164, 6, "obj-52", "function", "add", 2000.0, 0.0, 4, "obj-51", "function", "clear", 6, "obj-51", "function", "add", 0.0, 0.0, 6, "obj-51", "function", "add", 45.454548000000003, 1.0, 6, "obj-51", "function", "add", 1454.545532000000094, 0.852459, 6, "obj-51", "function", "add", 2000.0, 0.0, 5, "obj-50", "flonum", "float", 55.0 ]
						}
, 						{
							"number" : 3,
							"data" : [ 5, "obj-79", "number", "int", 2000, 5, "obj-75", "flonum", "float", 0.200001, 5, "obj-68", "flonum", "float", 1.0, 5, "obj-67", "flonum", "float", 0.0, 5, "obj-66", "flonum", "float", 0.0, 5, "obj-65", "flonum", "float", 2.99, 5, "obj-64", "flonum", "float", 4.98, 5, "obj-63", "flonum", "float", 0.0, 5, "obj-62", "flonum", "float", 0.0, 5, "obj-61", "flonum", "float", 4.01, 5, "obj-60", "flonum", "float", 7.040001, 5, "obj-59", "flonum", "float", 0.0, 5, "obj-58", "flonum", "float", 0.0, 5, "obj-57", "flonum", "float", 8.02, 4, "obj-56", "function", "clear", 6, "obj-56", "function", "add", 0.0, 0.787, 6, "obj-56", "function", "add", 363.636383000000023, 0.196721, 6, "obj-56", "function", "add", 886.363647000000014, 0.098361, 6, "obj-56", "function", "add", 2022.727294999999913, 0.0, 4, "obj-55", "function", "clear", 6, "obj-55", "function", "add", 0.0, 0.639, 6, "obj-55", "function", "add", 204.545456000000001, 0.016393, 6, "obj-55", "function", "add", 727.272766000000047, 0.131148, 6, "obj-55", "function", "add", 2000.0, 0.0, 4, "obj-54", "function", "clear", 6, "obj-54", "function", "add", 0.0, 0.689, 6, "obj-54", "function", "add", 386.363647000000014, 0.262295, 6, "obj-54", "function", "add", 863.636413999999945, 0.163934, 6, "obj-54", "function", "add", 1454.545532000000094, 0.065574, 6, "obj-54", "function", "add", 2000.0, 0.0, 4, "obj-53", "function", "clear", 6, "obj-53", "function", "add", 0.0, 1.0, 6, "obj-53", "function", "add", 363.636383000000023, 0.262295, 6, "obj-53", "function", "add", 1022.727295000000026, 0.098361, 6, "obj-53", "function", "add", 1545.454590000000053, 0.04918, 6, "obj-53", "function", "add", 2000.0, 0.0, 4, "obj-52", "function", "clear", 6, "obj-52", "function", "add", 0.0, 0.803, 6, "obj-52", "function", "add", 340.909087999999997, 0.393443, 6, "obj-52", "function", "add", 818.181824000000006, 0.131148, 6, "obj-52", "function", "add", 1363.636353000000099, 0.032787, 6, "obj-52", "function", "add", 2000.0, 0.0, 4, "obj-51", "function", "clear", 6, "obj-51", "function", "add", 0.0, 1.0, 6, "obj-51", "function", "add", 204.545456000000001, 0.459016, 6, "obj-51", "function", "add", 1340.909180000000106, 0.295082, 6, "obj-51", "function", "add", 1704.545532000000094, 0.180328, 6, "obj-51", "function", "add", 2000.0, 0.0, 5, "obj-50", "flonum", "float", 220.0 ]
						}
, 						{
							"number" : 4,
							"data" : [ 5, "obj-79", "number", "int", 500, 5, "obj-75", "flonum", "float", 0.200001, 5, "obj-68", "flonum", "float", 1.0, 5, "obj-67", "flonum", "float", 0.0, 5, "obj-66", "flonum", "float", 0.0, 5, "obj-65", "flonum", "float", 2.0, 5, "obj-64", "flonum", "float", 4.0, 5, "obj-63", "flonum", "float", 0.0, 5, "obj-62", "flonum", "float", 0.0, 5, "obj-61", "flonum", "float", 3.0, 5, "obj-60", "flonum", "float", 5.0, 5, "obj-59", "flonum", "float", 0.0, 5, "obj-58", "flonum", "float", 0.0, 5, "obj-57", "flonum", "float", 7.0, 4, "obj-56", "function", "clear", 6, "obj-56", "function", "add", 0.0, 0.0, 6, "obj-56", "function", "add", 37.5, 0.13, 6, "obj-56", "function", "add", 45.0, 0.26, 6, "obj-56", "function", "add", 110.0, 0.26, 6, "obj-56", "function", "add", 175.0, 0.04, 6, "obj-56", "function", "add", 205.0, 0.0, 4, "obj-55", "function", "clear", 6, "obj-55", "function", "add", 0.0, 0.0, 6, "obj-55", "function", "add", 27.5, 0.18, 6, "obj-55", "function", "add", 35.0, 0.43, 6, "obj-55", "function", "add", 110.0, 0.42, 6, "obj-55", "function", "add", 190.0, 0.04, 6, "obj-55", "function", "add", 235.0, 0.0, 4, "obj-54", "function", "clear", 6, "obj-54", "function", "add", 0.0, 0.0, 6, "obj-54", "function", "add", 25.0, 0.38, 6, "obj-54", "function", "add", 30.0, 0.86, 6, "obj-54", "function", "add", 120.0, 0.77, 6, "obj-54", "function", "add", 187.5, 0.12, 6, "obj-54", "function", "add", 235.0, 0.0, 4, "obj-53", "function", "clear", 6, "obj-53", "function", "add", 0.0, 0.0, 6, "obj-53", "function", "add", 20.0, 0.33, 6, "obj-53", "function", "add", 35.0, 1.0, 6, "obj-53", "function", "add", 110.0, 1.0, 6, "obj-53", "function", "add", 207.5, 0.14, 6, "obj-53", "function", "add", 275.0, 0.0, 4, "obj-52", "function", "clear", 6, "obj-52", "function", "add", 0.0, 0.0, 6, "obj-52", "function", "add", 25.0, 1.0, 6, "obj-52", "function", "add", 125.0, 0.98, 6, "obj-52", "function", "add", 222.5, 0.13, 6, "obj-52", "function", "add", 375.0, 0.0, 4, "obj-51", "function", "clear", 6, "obj-51", "function", "add", 0.0, 0.0, 6, "obj-51", "function", "add", 20.0, 1.0, 6, "obj-51", "function", "add", 140.0, 0.95, 6, "obj-51", "function", "add", 235.0, 0.27, 6, "obj-51", "function", "add", 360.0, 0.0, 5, "obj-50", "flonum", "float", 330.0 ]
						}
, 						{
							"number" : 5,
							"data" : [ 5, "obj-79", "number", "int", 2000, 5, "obj-75", "flonum", "float", 0.250001, 5, "obj-68", "flonum", "float", 1.0, 5, "obj-67", "flonum", "float", 0.0, 5, "obj-66", "flonum", "float", 0.0, 5, "obj-65", "flonum", "float", 3.0, 5, "obj-64", "flonum", "float", 7.0, 5, "obj-63", "flonum", "float", 0.0, 5, "obj-62", "flonum", "float", 0.0, 5, "obj-61", "flonum", "float", 5.0, 5, "obj-60", "flonum", "float", 9.0, 5, "obj-59", "flonum", "float", 0.0, 5, "obj-58", "flonum", "float", 0.0, 5, "obj-57", "flonum", "float", 11.0, 4, "obj-56", "function", "clear", 6, "obj-56", "function", "add", 0.0, 0.0, 6, "obj-56", "function", "add", 150.0, 0.02, 6, "obj-56", "function", "add", 220.0, 0.08, 6, "obj-56", "function", "add", 350.0, 0.1, 6, "obj-56", "function", "add", 460.0, 0.1, 6, "obj-56", "function", "add", 660.0, 0.01, 6, "obj-56", "function", "add", 740.0, 0.0, 4, "obj-55", "function", "clear", 6, "obj-55", "function", "add", 0.0, 0.0, 6, "obj-55", "function", "add", 120.0, 0.05, 6, "obj-55", "function", "add", 180.0, 0.18, 6, "obj-55", "function", "add", 220.0, 0.22, 6, "obj-55", "function", "add", 420.0, 0.22, 6, "obj-55", "function", "add", 660.0, 0.02, 6, "obj-55", "function", "add", 760.0, 0.0, 4, "obj-54", "function", "clear", 6, "obj-54", "function", "add", 0.0, 0.0, 6, "obj-54", "function", "add", 140.0, 0.13, 6, "obj-54", "function", "add", 180.0, 0.26, 6, "obj-54", "function", "add", 440.0, 0.26, 6, "obj-54", "function", "add", 700.0, 0.04, 6, "obj-54", "function", "add", 820.0, 0.0, 4, "obj-53", "function", "clear", 6, "obj-53", "function", "add", 0.0, 0.0, 6, "obj-53", "function", "add", 110.0, 0.17, 6, "obj-53", "function", "add", 150.0, 0.43, 6, "obj-53", "function", "add", 440.0, 0.42, 6, "obj-53", "function", "add", 760.0, 0.04, 6, "obj-53", "function", "add", 960.0, 0.0, 4, "obj-52", "function", "clear", 6, "obj-52", "function", "add", 0.0, 0.0, 6, "obj-52", "function", "add", 80.0, 0.33, 6, "obj-52", "function", "add", 140.0, 1.0, 6, "obj-52", "function", "add", 440.0, 1.0, 6, "obj-52", "function", "add", 830.0, 0.13, 6, "obj-52", "function", "add", 1100.0, 0.0, 4, "obj-51", "function", "clear", 6, "obj-51", "function", "add", 0.0, 0.0, 6, "obj-51", "function", "add", 80.0, 1.0, 6, "obj-51", "function", "add", 560.0, 0.95, 6, "obj-51", "function", "add", 940.0, 0.27, 6, "obj-51", "function", "add", 1440.0, 0.0, 5, "obj-50", "flonum", "float", 330.0 ]
						}
, 						{
							"number" : 6,
							"data" : [ 5, "obj-79", "number", "int", 5000, 5, "obj-75", "flonum", "float", 0.150001, 5, "obj-68", "flonum", "float", 1.0, 5, "obj-67", "flonum", "float", 0.0, 5, "obj-66", "flonum", "float", 0.0, 5, "obj-65", "flonum", "float", 1.01, 5, "obj-64", "flonum", "float", 1.04, 5, "obj-63", "flonum", "float", 0.0, 5, "obj-62", "flonum", "float", 0.0, 5, "obj-61", "flonum", "float", 1.02, 5, "obj-60", "flonum", "float", 1.05, 5, "obj-59", "flonum", "float", 0.0, 5, "obj-58", "flonum", "float", 0.0, 5, "obj-57", "flonum", "float", 1.06, 4, "obj-56", "function", "clear", 6, "obj-56", "function", "add", 0.0, 0.0, 6, "obj-56", "function", "add", 1250.0, 0.0, 6, "obj-56", "function", "add", 2500.0, 0.508197, 6, "obj-56", "function", "add", 4943.182128999999804, 1.0, 6, "obj-56", "function", "add", 5000.0, 0.0, 4, "obj-55", "function", "clear", 6, "obj-55", "function", "add", 0.0, 0.0, 6, "obj-55", "function", "add", 2500.0, 0.0, 6, "obj-55", "function", "add", 3750.0, 0.508197, 6, "obj-55", "function", "add", 4943.182128999999804, 1.0, 6, "obj-55", "function", "add", 5000.0, 0.0, 4, "obj-54", "function", "clear", 6, "obj-54", "function", "add", 0.0, 0.0, 6, "obj-54", "function", "add", 3750.0, 0.0, 6, "obj-54", "function", "add", 4943.182128999999804, 1.0, 6, "obj-54", "function", "add", 5000.0, 0.0, 4, "obj-53", "function", "clear", 6, "obj-53", "function", "add", 0.0, 0.0, 6, "obj-53", "function", "add", 3750.0, 0.0, 6, "obj-53", "function", "add", 4943.182128999999804, 1.0, 6, "obj-53", "function", "add", 5000.0, 0.0, 4, "obj-52", "function", "clear", 6, "obj-52", "function", "add", 0.0, 0.0, 6, "obj-52", "function", "add", 2500.0, 0.0, 6, "obj-52", "function", "add", 3750.0, 0.508197, 6, "obj-52", "function", "add", 4943.182128999999804, 1.0, 6, "obj-52", "function", "add", 5000.0, 0.0, 4, "obj-51", "function", "clear", 6, "obj-51", "function", "add", 0.0, 0.0, 6, "obj-51", "function", "add", 1250.0, 0.508197, 6, "obj-51", "function", "add", 4943.182128999999804, 1.0, 6, "obj-51", "function", "add", 5000.0, 0.0, 5, "obj-50", "flonum", "float", 880.0 ]
						}
, 						{
							"number" : 7,
							"data" : [ 5, "obj-79", "number", "int", 2000, 5, "obj-75", "flonum", "float", 0.200001, 5, "obj-68", "flonum", "float", 1.0, 5, "obj-67", "flonum", "float", 0.0, 5, "obj-66", "flonum", "float", 0.0, 5, "obj-65", "flonum", "float", 1.12, 5, "obj-64", "flonum", "float", 1.419996, 5, "obj-63", "flonum", "float", 0.0, 5, "obj-62", "flonum", "float", 0.0, 5, "obj-61", "flonum", "float", 1.260007, 5, "obj-60", "flonum", "float", 1.599999, 5, "obj-59", "flonum", "float", 0.0, 5, "obj-58", "flonum", "float", 0.0, 5, "obj-57", "flonum", "float", 1.789999, 4, "obj-56", "function", "clear", 6, "obj-56", "function", "add", 0.0, 0.0, 6, "obj-56", "function", "add", 931.818236999999954, 1.0, 6, "obj-56", "function", "add", 1068.181884999999966, 1.0, 6, "obj-56", "function", "add", 2022.727294999999913, 0.0, 4, "obj-55", "function", "clear", 6, "obj-55", "function", "add", 0.0, 0.0, 6, "obj-55", "function", "add", 681.818115000000034, 1.0, 6, "obj-55", "function", "add", 1000.0, 0.508197, 6, "obj-55", "function", "add", 1250.0, 1.0, 6, "obj-55", "function", "add", 2000.0, 0.0, 4, "obj-54", "function", "clear", 6, "obj-54", "function", "add", 0.0, 0.0, 6, "obj-54", "function", "add", 590.909119000000032, 1.0, 6, "obj-54", "function", "add", 1000.0, 0.245902, 6, "obj-54", "function", "add", 1409.09106399999996, 1.0, 6, "obj-54", "function", "add", 2000.0, 0.0, 4, "obj-53", "function", "clear", 6, "obj-53", "function", "add", 0.0, 0.0, 6, "obj-53", "function", "add", 431.818206999999973, 1.0, 6, "obj-53", "function", "add", 1000.0, 0.196721, 6, "obj-53", "function", "add", 1568.181884999999966, 1.0, 6, "obj-53", "function", "add", 2000.0, 0.0, 4, "obj-52", "function", "clear", 6, "obj-52", "function", "add", 0.0, 0.0, 6, "obj-52", "function", "add", 272.727295000000026, 1.0, 6, "obj-52", "function", "add", 1022.727355999999986, 0.131148, 6, "obj-52", "function", "add", 1727.272827000000007, 1.0, 6, "obj-52", "function", "add", 2000.0, 0.0, 4, "obj-51", "function", "clear", 6, "obj-51", "function", "add", 0.0, 0.0, 6, "obj-51", "function", "add", 113.636368000000004, 1.0, 6, "obj-51", "function", "add", 1000.0, 0.065574, 6, "obj-51", "function", "add", 1863.636475000000019, 1.0, 6, "obj-51", "function", "add", 2000.0, 0.0, 5, "obj-50", "flonum", "float", 440.0 ]
						}
, 						{
							"number" : 8,
							"data" : [ 5, "obj-79", "number", "int", 5000, 5, "obj-75", "flonum", "float", 0.250001, 5, "obj-68", "flonum", "float", 1.0, 5, "obj-67", "flonum", "float", 0.0, 5, "obj-66", "flonum", "float", 0.06, 5, "obj-65", "flonum", "float", 1.97, 5, "obj-64", "flonum", "float", 4.2, 5, "obj-63", "flonum", "float", 0.5, 5, "obj-62", "flonum", "float", 0.88, 5, "obj-61", "flonum", "float", 2.8, 5, "obj-60", "flonum", "float", 8.24, 5, "obj-59", "flonum", "float", 0.94, 5, "obj-58", "flonum", "float", 0.01, 5, "obj-57", "flonum", "float", 13.800000000000001, 4, "obj-56", "function", "clear", 6, "obj-56", "function", "add", 0.0, 1.0, 6, "obj-56", "function", "add", 284.090912000000003, 0.180328, 6, "obj-56", "function", "add", 681.818175999999994, 0.360656, 6, "obj-56", "function", "add", 875.0, 0.1, 6, "obj-56", "function", "add", 1306.818236999999954, 0.016393, 6, "obj-56", "function", "add", 1988.636475000000019, 0.081967, 6, "obj-56", "function", "add", 5000.0, 0.0, 4, "obj-55", "function", "clear", 6, "obj-55", "function", "add", 0.0, 1.0, 6, "obj-55", "function", "add", 340.909087999999997, 0.131148, 6, "obj-55", "function", "add", 568.181824000000006, 0.426229, 6, "obj-55", "function", "add", 1306.818236999999954, 0.04918, 6, "obj-55", "function", "add", 2386.363769999999931, 0.098361, 6, "obj-55", "function", "add", 4318.182128999999804, 0.0, 4, "obj-54", "function", "clear", 6, "obj-54", "function", "add", 0.0, 0.8, 6, "obj-54", "function", "add", 284.090912000000003, 0.098361, 6, "obj-54", "function", "add", 568.181824000000006, 0.311475, 6, "obj-54", "function", "add", 2215.909180000000106, 0.065574, 6, "obj-54", "function", "add", 3125.0, 0.114754, 6, "obj-54", "function", "add", 4261.363769999999931, 0.0, 4, "obj-53", "function", "clear", 6, "obj-53", "function", "add", 0.0, 0.68, 6, "obj-53", "function", "add", 340.909087999999997, 0.081967, 6, "obj-53", "function", "add", 568.181824000000006, 0.229508, 6, "obj-53", "function", "add", 3409.09130899999991, 0.016393, 6, "obj-53", "function", "add", 4943.182128999999804, 0.0, 4, "obj-52", "function", "clear", 6, "obj-52", "function", "add", 0.0, 0.5, 6, "obj-52", "function", "add", 284.090912000000003, 0.065574, 6, "obj-52", "function", "add", 681.818175999999994, 0.229508, 6, "obj-52", "function", "add", 2272.72729500000014, 0.016393, 6, "obj-52", "function", "add", 3181.818358999999873, 0.065574, 6, "obj-52", "function", "add", 5000.0, 0.0, 4, "obj-51", "function", "clear", 6, "obj-51", "function", "add", 0.0, 0.5, 6, "obj-51", "function", "add", 625.0, 0.245902, 6, "obj-51", "function", "add", 2500.0, 0.065574, 6, "obj-51", "function", "add", 3522.72729500000014, 0.016393, 6, "obj-51", "function", "add", 5000.0, 0.0, 5, "obj-50", "flonum", "float", 330.0 ]
						}
, 						{
							"number" : 9,
							"data" : [ 5, "obj-79", "number", "int", 222, 5, "obj-75", "flonum", "float", 0.250001, 5, "obj-68", "flonum", "float", 1.0, 5, "obj-67", "flonum", "float", 0.0, 5, "obj-66", "flonum", "float", 0.06, 5, "obj-65", "flonum", "float", 1.97, 5, "obj-64", "flonum", "float", 4.2, 5, "obj-63", "flonum", "float", 0.5, 5, "obj-62", "flonum", "float", 0.88, 5, "obj-61", "flonum", "float", 2.8, 5, "obj-60", "flonum", "float", 8.24, 5, "obj-59", "flonum", "float", 0.94, 5, "obj-58", "flonum", "float", 0.01, 5, "obj-57", "flonum", "float", 13.800000000000001, 4, "obj-56", "function", "clear", 7, "obj-56", "function", "add", 0.0, 1.0, 0, 7, "obj-56", "function", "add", 12.613642, 0.180328, 0, 7, "obj-56", "function", "add", 30.272718000000001, 0.360656, 0, 7, "obj-56", "function", "add", 38.849972000000001, 0.1, 0, 7, "obj-56", "function", "add", 58.022799999999997, 0.016393, 0, 7, "obj-56", "function", "add", 88.295485999999997, 0.081967, 0, 7, "obj-56", "function", "add", 222.0, 0.0, 0, 5, "obj-56", "function", "domain", 222.0, 6, "obj-56", "function", "range", 0.0, 1.0, 4, "obj-55", "function", "clear", 7, "obj-55", "function", "add", 0.0, 1.0, 0, 7, "obj-55", "function", "add", 15.136359000000001, 0.131148, 0, 7, "obj-55", "function", "add", 25.227283, 0.426229, 0, 7, "obj-55", "function", "add", 58.022799999999997, 0.04918, 0, 7, "obj-55", "function", "add", 105.954421999999994, 0.098361, 0, 7, "obj-55", "function", "add", 191.727203000000003, 0.0, 0, 5, "obj-55", "function", "domain", 222.0, 6, "obj-55", "function", "range", 0.0, 1.0, 4, "obj-54", "function", "clear", 7, "obj-54", "function", "add", 0.0, 0.8, 0, 7, "obj-54", "function", "add", 12.613642, 0.098361, 0, 7, "obj-54", "function", "add", 25.227283, 0.311475, 0, 7, "obj-54", "function", "add", 98.386398, 0.065574, 0, 7, "obj-54", "function", "add", 138.75, 0.114754, 0, 7, "obj-54", "function", "add", 189.204513999999989, 0.0, 0, 5, "obj-54", "function", "domain", 222.0, 6, "obj-54", "function", "range", 0.0, 1.0, 4, "obj-53", "function", "clear", 7, "obj-53", "function", "add", 0.0, 0.68, 0, 7, "obj-53", "function", "add", 15.136359000000001, 0.081967, 0, 7, "obj-53", "function", "add", 25.227283, 0.229508, 0, 7, "obj-53", "function", "add", 151.363449000000003, 0.016393, 0, 7, "obj-53", "function", "add", 219.477172999999993, 0.0, 0, 5, "obj-53", "function", "domain", 222.0, 6, "obj-53", "function", "range", 0.0, 1.0, 4, "obj-52", "function", "clear", 7, "obj-52", "function", "add", 0.0, 0.5, 0, 7, "obj-52", "function", "add", 12.613642, 0.065574, 0, 7, "obj-52", "function", "add", 30.272718000000001, 0.229508, 0, 7, "obj-52", "function", "add", 100.909133999999995, 0.016393, 0, 7, "obj-52", "function", "add", 141.272690000000011, 0.065574, 0, 7, "obj-52", "function", "add", 222.0, 0.0, 0, 5, "obj-52", "function", "domain", 222.0, 6, "obj-52", "function", "range", 0.0, 1.0, 4, "obj-51", "function", "clear", 7, "obj-51", "function", "add", 0.0, 0.5, 0, 7, "obj-51", "function", "add", 27.75, 0.245902, 0, 7, "obj-51", "function", "add", 111.0, 0.065574, 0, 7, "obj-51", "function", "add", 156.409210000000002, 0.016393, 0, 7, "obj-51", "function", "add", 222.0, 0.0, 0, 5, "obj-51", "function", "domain", 222.0, 6, "obj-51", "function", "range", 0.0, 1.0, 5, "obj-50", "flonum", "float", 512.0, 5, "<invalid>", "number", "int", 0, 5, "<invalid>", "number", "int", 0, 5, "<invalid>", "number", "int", 0, 5, "obj-3", "number", "int", 103, 5, "<invalid>", "gswitch", "int", 1 ]
						}
 ]
				}

			}
, 			{
				"box" : 				{
					"fontname" : "Courier",
					"fontsize" : 10.0,
					"id" : "obj-29",
					"maxclass" : "newobj",
					"numinlets" : 0,
					"numoutlets" : 1,
					"outlettype" : [ "" ],
					"patching_rect" : [ 646.0, 18.0, 61.0, 18.0 ],
					"text" : "r dur"
				}

			}
, 			{
				"box" : 				{
					"fontname" : "Courier",
					"fontsize" : 10.0,
					"hidden" : 1,
					"id" : "obj-30",
					"maxclass" : "newobj",
					"numinlets" : 1,
					"numoutlets" : 1,
					"outlettype" : [ "bang" ],
					"patching_rect" : [ 55.0, 384.0, 68.0, 18.0 ],
					"text" : "loadbang"
				}

			}
, 			{
				"box" : 				{
					"fontname" : "Courier",
					"fontsize" : 10.0,
					"id" : "obj-31",
					"maxclass" : "newobj",
					"numinlets" : 0,
					"numoutlets" : 1,
					"outlettype" : [ "" ],
					"patching_rect" : [ 37.0, 5.0, 52.0, 18.0 ],
					"text" : "r freq"
				}

			}
, 			{
				"box" : 				{
					"fontname" : "Courier",
					"fontsize" : 10.0,
					"id" : "obj-32",
					"maxclass" : "newobj",
					"numinlets" : 0,
					"numoutlets" : 1,
					"outlettype" : [ "" ],
					"patching_rect" : [ 338.0, 400.0, 47.0, 18.0 ],
					"text" : "r amp"
				}

			}
, 			{
				"box" : 				{
					"fontname" : "Times Roman",
					"fontsize" : 18.0,
					"id" : "obj-33",
					"maxclass" : "comment",
					"numinlets" : 1,
					"numoutlets" : 0,
					"patching_rect" : [ 711.0, 38.0, 105.0, 24.0 ],
					"text" : "Duration"
				}

			}
, 			{
				"box" : 				{
					"fontname" : "Times Roman",
					"fontsize" : 10.0,
					"id" : "obj-34",
					"maxclass" : "comment",
					"numinlets" : 1,
					"numoutlets" : 0,
					"patching_rect" : [ 389.0, 45.0, 63.0, 16.0 ],
					"text" : "Play a note"
				}

			}
, 			{
				"box" : 				{
					"id" : "obj-35",
					"maxclass" : "button",
					"numinlets" : 1,
					"numoutlets" : 1,
					"outlettype" : [ "bang" ],
					"parameter_enable" : 0,
					"patching_rect" : [ 356.0, 35.0, 30.0, 30.0 ]
				}

			}
, 			{
				"box" : 				{
					"fontname" : "Courier",
					"fontsize" : 10.0,
					"id" : "obj-36",
					"maxclass" : "message",
					"numinlets" : 2,
					"numoutlets" : 1,
					"outlettype" : [ "" ],
					"patching_rect" : [ 648.0, 69.0, 92.0, 18.0 ],
					"text" : "setdomain $1"
				}

			}
, 			{
				"box" : 				{
					"fontname" : "Times Roman",
					"fontsize" : 10.0,
					"id" : "obj-37",
					"linecount" : 2,
					"maxclass" : "comment",
					"numinlets" : 1,
					"numoutlets" : 0,
					"patching_rect" : [ 601.0, 313.0, 28.0, 26.0 ],
					"text" : "phase"
				}

			}
, 			{
				"box" : 				{
					"fontname" : "Times Roman",
					"fontsize" : 10.0,
					"id" : "obj-40",
					"linecount" : 2,
					"maxclass" : "comment",
					"numinlets" : 1,
					"numoutlets" : 0,
					"patching_rect" : [ 499.0, 313.0, 28.0, 26.0 ],
					"text" : "phase"
				}

			}
, 			{
				"box" : 				{
					"fontname" : "Times Roman",
					"fontsize" : 10.0,
					"id" : "obj-41",
					"linecount" : 2,
					"maxclass" : "comment",
					"numinlets" : 1,
					"numoutlets" : 0,
					"patching_rect" : [ 397.0, 313.0, 28.0, 26.0 ],
					"text" : "phase"
				}

			}
, 			{
				"box" : 				{
					"fontname" : "Times Roman",
					"fontsize" : 10.0,
					"id" : "obj-44",
					"linecount" : 2,
					"maxclass" : "comment",
					"numinlets" : 1,
					"numoutlets" : 0,
					"patching_rect" : [ 296.0, 313.0, 28.0, 26.0 ],
					"text" : "phase"
				}

			}
, 			{
				"box" : 				{
					"fontname" : "Times Roman",
					"fontsize" : 10.0,
					"id" : "obj-45",
					"linecount" : 2,
					"maxclass" : "comment",
					"numinlets" : 1,
					"numoutlets" : 0,
					"patching_rect" : [ 194.0, 313.0, 28.0, 26.0 ],
					"text" : "phase"
				}

			}
, 			{
				"box" : 				{
					"fontname" : "Times Roman",
					"fontsize" : 10.0,
					"id" : "obj-48",
					"linecount" : 2,
					"maxclass" : "comment",
					"numinlets" : 1,
					"numoutlets" : 0,
					"patching_rect" : [ 92.0, 313.0, 28.0, 26.0 ],
					"text" : "phase"
				}

			}
, 			{
				"box" : 				{
					"fontname" : "Times Roman",
					"fontsize" : 10.0,
					"id" : "obj-49",
					"maxclass" : "comment",
					"numinlets" : 1,
					"numoutlets" : 0,
					"patching_rect" : [ 89.0, 291.0, 63.0, 16.0 ],
					"text" : "Frequency"
				}

			}
, 			{
				"box" : 				{
					"bgcolor" : [ 0.866667, 0.866667, 0.866667, 1.0 ],
					"fontname" : "Courier",
					"fontsize" : 24.0,
					"format" : 6,
					"htricolor" : [ 0.87, 0.82, 0.24, 1.0 ],
					"id" : "obj-50",
					"maxclass" : "flonum",
					"numinlets" : 1,
					"numoutlets" : 2,
					"outlettype" : [ "", "bang" ],
					"parameter_enable" : 0,
					"patching_rect" : [ 37.0, 30.0, 90.0, 32.0 ],
					"textcolor" : [ 0.0, 0.0, 0.0, 1.0 ],
					"tricolor" : [ 0.75, 0.75, 0.75, 1.0 ],
					"triscale" : 0.9
				}

			}
, 			{
				"box" : 				{
					"addpoints" : [ 0.0, 0.0, 0, 22.727271999999999, 1.0, 0, 761.363647000000014, 0.491803, 0, 1000.0, 0.0, 0 ],
					"bgcolor" : [ 0.8, 0.8, 0.8, 1.0 ],
					"gridcolor" : [ 0.5, 0.5, 0.5, 0.5 ],
					"id" : "obj-51",
					"linecolor" : [ 0.333333, 0.333333, 0.333333, 1.0 ],
					"maxclass" : "function",
					"numinlets" : 1,
					"numoutlets" : 4,
					"outlettype" : [ "float", "", "", "bang" ],
					"parameter_enable" : 0,
					"patching_rect" : [ 90.0, 151.0, 100.0, 86.0 ]
				}

			}
, 			{
				"box" : 				{
					"addpoints" : [ 0.0, 0.0, 0, 545.454590000000053, 1.0, 0, 931.818236999999954, 0.721311, 0, 1000.0, 0.0, 0 ],
					"bgcolor" : [ 0.8, 0.8, 0.8, 1.0 ],
					"gridcolor" : [ 0.5, 0.5, 0.5, 0.5 ],
					"id" : "obj-52",
					"linecolor" : [ 0.333333, 0.333333, 0.333333, 1.0 ],
					"maxclass" : "function",
					"numinlets" : 1,
					"numoutlets" : 4,
					"outlettype" : [ "float", "", "", "bang" ],
					"parameter_enable" : 0,
					"patching_rect" : [ 192.0, 151.0, 100.0, 86.0 ]
				}

			}
, 			{
				"box" : 				{
					"addpoints" : [ 0.0, 0.0, 0, 159.090912000000003, 1.0, 0, 534.090942000000041, 0.147541, 0, 795.454590000000053, 0.868852, 0, 1000.0, 0.0, 0 ],
					"bgcolor" : [ 0.8, 0.8, 0.8, 1.0 ],
					"gridcolor" : [ 0.5, 0.5, 0.5, 0.5 ],
					"id" : "obj-53",
					"linecolor" : [ 0.333333, 0.333333, 0.333333, 1.0 ],
					"maxclass" : "function",
					"numinlets" : 1,
					"numoutlets" : 4,
					"outlettype" : [ "float", "", "", "bang" ],
					"parameter_enable" : 0,
					"patching_rect" : [ 294.0, 151.0, 100.0, 86.0 ]
				}

			}
, 			{
				"box" : 				{
					"addpoints" : [ 0.0, 0.0, 0, 45.454548000000003, 0.885246, 0, 500.0, 0.786885, 0, 704.545409999999947, 0.360656, 0, 1000.0, 0.0, 0 ],
					"bgcolor" : [ 0.8, 0.8, 0.8, 1.0 ],
					"gridcolor" : [ 0.5, 0.5, 0.5, 0.5 ],
					"id" : "obj-54",
					"linecolor" : [ 0.333333, 0.333333, 0.333333, 1.0 ],
					"maxclass" : "function",
					"numinlets" : 1,
					"numoutlets" : 4,
					"outlettype" : [ "float", "", "", "bang" ],
					"parameter_enable" : 0,
					"patching_rect" : [ 396.0, 151.0, 100.0, 86.0 ]
				}

			}
, 			{
				"box" : 				{
					"addpoints" : [ 0.0, 0.0, 0, 556.818175999999994, 1.0, 0, 818.181824000000006, 0.114754, 0, 1000.0, 0.0, 0 ],
					"bgcolor" : [ 0.8, 0.8, 0.8, 1.0 ],
					"gridcolor" : [ 0.5, 0.5, 0.5, 0.5 ],
					"id" : "obj-55",
					"linecolor" : [ 0.333333, 0.333333, 0.333333, 1.0 ],
					"maxclass" : "function",
					"numinlets" : 1,
					"numoutlets" : 4,
					"outlettype" : [ "float", "", "", "bang" ],
					"parameter_enable" : 0,
					"patching_rect" : [ 498.0, 151.0, 100.0, 86.0 ]
				}

			}
, 			{
				"box" : 				{
					"addpoints" : [ 0.0, 0.0, 0, 45.454548000000003, 1.0, 0, 193.181824000000006, 0.196721, 0, 920.454590000000053, 0.704918, 0, 1011.363647000000014, 0.0, 0 ],
					"bgcolor" : [ 0.8, 0.8, 0.8, 1.0 ],
					"gridcolor" : [ 0.5, 0.5, 0.5, 0.5 ],
					"id" : "obj-56",
					"linecolor" : [ 0.333333, 0.333333, 0.333333, 1.0 ],
					"maxclass" : "function",
					"numinlets" : 1,
					"numoutlets" : 4,
					"outlettype" : [ "float", "", "", "bang" ],
					"parameter_enable" : 0,
					"patching_rect" : [ 600.0, 151.0, 100.0, 86.0 ]
				}

			}
, 			{
				"box" : 				{
					"bgcolor" : [ 0.866667, 0.866667, 0.866667, 1.0 ],
					"fontname" : "Courier",
					"fontsize" : 24.0,
					"format" : 6,
					"htricolor" : [ 0.87, 0.82, 0.24, 1.0 ],
					"id" : "obj-57",
					"maxclass" : "flonum",
					"numinlets" : 1,
					"numoutlets" : 2,
					"outlettype" : [ "", "bang" ],
					"parameter_enable" : 0,
					"patching_rect" : [ 612.0, 243.0, 75.0, 32.0 ],
					"textcolor" : [ 0.0, 0.0, 0.0, 1.0 ],
					"tricolor" : [ 0.75, 0.75, 0.75, 1.0 ],
					"triscale" : 0.9
				}

			}
, 			{
				"box" : 				{
					"bgcolor" : [ 0.866667, 0.866667, 0.866667, 1.0 ],
					"fontname" : "Courier",
					"fontsize" : 10.0,
					"format" : 6,
					"htricolor" : [ 0.87, 0.82, 0.24, 1.0 ],
					"id" : "obj-58",
					"maxclass" : "flonum",
					"maximum" : 1.0,
					"minimum" : 0.0,
					"numinlets" : 1,
					"numoutlets" : 2,
					"outlettype" : [ "", "bang" ],
					"parameter_enable" : 0,
					"patching_rect" : [ 598.0, 327.0, 35.0, 18.0 ],
					"textcolor" : [ 0.0, 0.0, 0.0, 1.0 ],
					"tricolor" : [ 0.75, 0.75, 0.75, 1.0 ],
					"triscale" : 0.9
				}

			}
, 			{
				"box" : 				{
					"bgcolor" : [ 0.866667, 0.866667, 0.866667, 1.0 ],
					"fontname" : "Courier",
					"fontsize" : 10.0,
					"format" : 6,
					"htricolor" : [ 0.87, 0.82, 0.24, 1.0 ],
					"id" : "obj-59",
					"maxclass" : "flonum",
					"maximum" : 1.0,
					"minimum" : 0.0,
					"numinlets" : 1,
					"numoutlets" : 2,
					"outlettype" : [ "", "bang" ],
					"parameter_enable" : 0,
					"patching_rect" : [ 496.0, 327.0, 36.0, 18.0 ],
					"textcolor" : [ 0.0, 0.0, 0.0, 1.0 ],
					"tricolor" : [ 0.75, 0.75, 0.75, 1.0 ],
					"triscale" : 0.9
				}

			}
, 			{
				"box" : 				{
					"bgcolor" : [ 0.866667, 0.866667, 0.866667, 1.0 ],
					"fontname" : "Courier",
					"fontsize" : 24.0,
					"format" : 6,
					"htricolor" : [ 0.87, 0.82, 0.24, 1.0 ],
					"id" : "obj-60",
					"maxclass" : "flonum",
					"numinlets" : 1,
					"numoutlets" : 2,
					"outlettype" : [ "", "bang" ],
					"parameter_enable" : 0,
					"patching_rect" : [ 515.0, 243.0, 85.0, 32.0 ],
					"textcolor" : [ 0.0, 0.0, 0.0, 1.0 ],
					"tricolor" : [ 0.75, 0.75, 0.75, 1.0 ],
					"triscale" : 0.9
				}

			}
, 			{
				"box" : 				{
					"bgcolor" : [ 0.866667, 0.866667, 0.866667, 1.0 ],
					"fontname" : "Courier",
					"fontsize" : 24.0,
					"format" : 6,
					"htricolor" : [ 0.87, 0.82, 0.24, 1.0 ],
					"id" : "obj-61",
					"maxclass" : "flonum",
					"numinlets" : 1,
					"numoutlets" : 2,
					"outlettype" : [ "", "bang" ],
					"parameter_enable" : 0,
					"patching_rect" : [ 310.0, 243.0, 74.0, 32.0 ],
					"textcolor" : [ 0.0, 0.0, 0.0, 1.0 ],
					"tricolor" : [ 0.75, 0.75, 0.75, 1.0 ],
					"triscale" : 0.9
				}

			}
, 			{
				"box" : 				{
					"bgcolor" : [ 0.866667, 0.866667, 0.866667, 1.0 ],
					"fontname" : "Courier",
					"fontsize" : 10.0,
					"format" : 6,
					"htricolor" : [ 0.87, 0.82, 0.24, 1.0 ],
					"id" : "obj-62",
					"maxclass" : "flonum",
					"maximum" : 1.0,
					"minimum" : 0.0,
					"numinlets" : 1,
					"numoutlets" : 2,
					"outlettype" : [ "", "bang" ],
					"parameter_enable" : 0,
					"patching_rect" : [ 293.0, 327.0, 35.0, 18.0 ],
					"textcolor" : [ 0.0, 0.0, 0.0, 1.0 ],
					"tricolor" : [ 0.75, 0.75, 0.75, 1.0 ],
					"triscale" : 0.9
				}

			}
, 			{
				"box" : 				{
					"bgcolor" : [ 0.866667, 0.866667, 0.866667, 1.0 ],
					"fontname" : "Courier",
					"fontsize" : 10.0,
					"format" : 6,
					"htricolor" : [ 0.87, 0.82, 0.24, 1.0 ],
					"id" : "obj-63",
					"maxclass" : "flonum",
					"maximum" : 1.0,
					"minimum" : 0.0,
					"numinlets" : 1,
					"numoutlets" : 2,
					"outlettype" : [ "", "bang" ],
					"parameter_enable" : 0,
					"patching_rect" : [ 394.0, 327.0, 35.0, 18.0 ],
					"textcolor" : [ 0.0, 0.0, 0.0, 1.0 ],
					"tricolor" : [ 0.75, 0.75, 0.75, 1.0 ],
					"triscale" : 0.9
				}

			}
, 			{
				"box" : 				{
					"bgcolor" : [ 0.866667, 0.866667, 0.866667, 1.0 ],
					"fontname" : "Courier",
					"fontsize" : 24.0,
					"format" : 6,
					"htricolor" : [ 0.87, 0.82, 0.24, 1.0 ],
					"id" : "obj-64",
					"maxclass" : "flonum",
					"numinlets" : 1,
					"numoutlets" : 2,
					"outlettype" : [ "", "bang" ],
					"parameter_enable" : 0,
					"patching_rect" : [ 412.0, 243.0, 74.0, 32.0 ],
					"textcolor" : [ 0.0, 0.0, 0.0, 1.0 ],
					"tricolor" : [ 0.75, 0.75, 0.75, 1.0 ],
					"triscale" : 0.9
				}

			}
, 			{
				"box" : 				{
					"bgcolor" : [ 0.866667, 0.866667, 0.866667, 1.0 ],
					"fontname" : "Courier",
					"fontsize" : 24.0,
					"format" : 6,
					"htricolor" : [ 0.87, 0.82, 0.24, 1.0 ],
					"id" : "obj-65",
					"maxclass" : "flonum",
					"numinlets" : 1,
					"numoutlets" : 2,
					"outlettype" : [ "", "bang" ],
					"parameter_enable" : 0,
					"patching_rect" : [ 208.0, 243.0, 74.0, 32.0 ],
					"textcolor" : [ 0.0, 0.0, 0.0, 1.0 ],
					"tricolor" : [ 0.75, 0.75, 0.75, 1.0 ],
					"triscale" : 0.9
				}

			}
, 			{
				"box" : 				{
					"bgcolor" : [ 0.866667, 0.866667, 0.866667, 1.0 ],
					"fontname" : "Courier",
					"fontsize" : 10.0,
					"format" : 6,
					"htricolor" : [ 0.87, 0.82, 0.24, 1.0 ],
					"id" : "obj-66",
					"maxclass" : "flonum",
					"maximum" : 1.0,
					"minimum" : 0.0,
					"numinlets" : 1,
					"numoutlets" : 2,
					"outlettype" : [ "", "bang" ],
					"parameter_enable" : 0,
					"patching_rect" : [ 191.0, 327.0, 35.0, 18.0 ],
					"textcolor" : [ 0.0, 0.0, 0.0, 1.0 ],
					"tricolor" : [ 0.75, 0.75, 0.75, 1.0 ],
					"triscale" : 0.9
				}

			}
, 			{
				"box" : 				{
					"bgcolor" : [ 0.866667, 0.866667, 0.866667, 1.0 ],
					"fontname" : "Courier",
					"fontsize" : 10.0,
					"format" : 6,
					"htricolor" : [ 0.87, 0.82, 0.24, 1.0 ],
					"id" : "obj-67",
					"maxclass" : "flonum",
					"maximum" : 1.0,
					"minimum" : 0.0,
					"numinlets" : 1,
					"numoutlets" : 2,
					"outlettype" : [ "", "bang" ],
					"parameter_enable" : 0,
					"patching_rect" : [ 89.0, 327.0, 35.0, 18.0 ],
					"textcolor" : [ 0.0, 0.0, 0.0, 1.0 ],
					"tricolor" : [ 0.75, 0.75, 0.75, 1.0 ],
					"triscale" : 0.9
				}

			}
, 			{
				"box" : 				{
					"bgcolor" : [ 0.866667, 0.866667, 0.866667, 1.0 ],
					"fontname" : "Courier",
					"fontsize" : 24.0,
					"format" : 6,
					"htricolor" : [ 0.87, 0.82, 0.24, 1.0 ],
					"id" : "obj-68",
					"maxclass" : "flonum",
					"numinlets" : 1,
					"numoutlets" : 2,
					"outlettype" : [ "", "bang" ],
					"parameter_enable" : 0,
					"patching_rect" : [ 105.0, 243.0, 74.0, 32.0 ],
					"textcolor" : [ 0.0, 0.0, 0.0, 1.0 ],
					"tricolor" : [ 0.75, 0.75, 0.75, 1.0 ],
					"triscale" : 0.9
				}

			}
, 			{
				"box" : 				{
					"fontname" : "Courier",
					"fontsize" : 10.0,
					"id" : "obj-69",
					"maxclass" : "newobj",
					"numinlets" : 4,
					"numoutlets" : 1,
					"outlettype" : [ "signal" ],
					"patching_rect" : [ 547.0, 349.0, 100.0, 18.0 ],
					"text" : "partial~ 6."
				}

			}
, 			{
				"box" : 				{
					"fontname" : "Courier",
					"fontsize" : 10.0,
					"id" : "obj-70",
					"maxclass" : "newobj",
					"numinlets" : 4,
					"numoutlets" : 1,
					"outlettype" : [ "signal" ],
					"patching_rect" : [ 445.0, 349.0, 100.0, 18.0 ],
					"text" : "partial~ 5."
				}

			}
, 			{
				"box" : 				{
					"fontname" : "Courier",
					"fontsize" : 10.0,
					"id" : "obj-71",
					"maxclass" : "newobj",
					"numinlets" : 4,
					"numoutlets" : 1,
					"outlettype" : [ "signal" ],
					"patching_rect" : [ 343.0, 349.0, 100.0, 18.0 ],
					"text" : "partial~ 4."
				}

			}
, 			{
				"box" : 				{
					"fontname" : "Courier",
					"fontsize" : 10.0,
					"id" : "obj-72",
					"maxclass" : "newobj",
					"numinlets" : 4,
					"numoutlets" : 1,
					"outlettype" : [ "signal" ],
					"patching_rect" : [ 241.0, 349.0, 100.0, 18.0 ],
					"text" : "partial~ 3."
				}

			}
, 			{
				"box" : 				{
					"fontname" : "Courier",
					"fontsize" : 10.0,
					"id" : "obj-73",
					"maxclass" : "newobj",
					"numinlets" : 4,
					"numoutlets" : 1,
					"outlettype" : [ "signal" ],
					"patching_rect" : [ 139.0, 349.0, 100.0, 18.0 ],
					"text" : "partial~ 2."
				}

			}
, 			{
				"box" : 				{
					"fontname" : "Courier",
					"fontsize" : 10.0,
					"id" : "obj-74",
					"maxclass" : "newobj",
					"numinlets" : 4,
					"numoutlets" : 1,
					"outlettype" : [ "signal" ],
					"patching_rect" : [ 37.0, 349.0, 100.0, 18.0 ],
					"text" : "partial~ 1."
				}

			}
, 			{
				"box" : 				{
					"bgcolor" : [ 0.866667, 0.866667, 0.866667, 1.0 ],
					"fontname" : "Courier",
					"fontsize" : 10.0,
					"format" : 6,
					"htricolor" : [ 0.87, 0.82, 0.24, 1.0 ],
					"id" : "obj-75",
					"maxclass" : "flonum",
					"maximum" : 1.0,
					"minimum" : 0.0,
					"numinlets" : 1,
					"numoutlets" : 2,
					"outlettype" : [ "", "bang" ],
					"parameter_enable" : 0,
					"patching_rect" : [ 338.0, 421.0, 35.0, 18.0 ],
					"textcolor" : [ 0.0, 0.0, 0.0, 1.0 ],
					"tricolor" : [ 0.75, 0.75, 0.75, 1.0 ],
					"triscale" : 0.9
				}

			}
, 			{
				"box" : 				{
					"fontname" : "Courier",
					"fontsize" : 10.0,
					"id" : "obj-76",
					"maxclass" : "newobj",
					"numinlets" : 2,
					"numoutlets" : 1,
					"outlettype" : [ "signal" ],
					"patching_rect" : [ 280.0, 439.0, 68.0, 18.0 ],
					"text" : "*~"
				}

			}
, 			{
				"box" : 				{
					"id" : "obj-77",
					"local" : 108,
					"maxclass" : "ezdac~",
					"numinlets" : 2,
					"numoutlets" : 0,
					"patching_rect" : [ 280.0, 465.0, 33.0, 33.0 ]
				}

			}
, 			{
				"box" : 				{
					"fontname" : "Times Roman",
					"fontsize" : 10.0,
					"id" : "obj-78",
					"maxclass" : "comment",
					"numinlets" : 1,
					"numoutlets" : 0,
					"patching_rect" : [ 373.0, 421.0, 63.0, 16.0 ],
					"text" : "Amplitude"
				}

			}
, 			{
				"box" : 				{
					"bgcolor" : [ 0.866667, 0.866667, 0.866667, 1.0 ],
					"fontname" : "Courier",
					"fontsize" : 18.0,
					"htricolor" : [ 0.87, 0.82, 0.24, 1.0 ],
					"id" : "obj-79",
					"maxclass" : "number",
					"minimum" : 0,
					"numinlets" : 1,
					"numoutlets" : 2,
					"outlettype" : [ "", "bang" ],
					"parameter_enable" : 0,
					"patching_rect" : [ 646.0, 39.0, 63.0, 26.0 ],
					"textcolor" : [ 0.0, 0.0, 0.0, 1.0 ],
					"tricolor" : [ 0.75, 0.75, 0.75, 1.0 ],
					"triscale" : 0.9
				}

			}
 ],
		"lines" : [ 			{
				"patchline" : 				{
					"destination" : [ "obj-25", 0 ],
					"source" : [ "obj-10", 0 ]
				}

			}
, 			{
				"patchline" : 				{
					"destination" : [ "obj-9", 0 ],
					"source" : [ "obj-102", 0 ]
				}

			}
, 			{
				"patchline" : 				{
					"destination" : [ "obj-119", 0 ],
					"source" : [ "obj-103", 0 ]
				}

			}
, 			{
				"patchline" : 				{
					"destination" : [ "obj-10", 0 ],
					"source" : [ "obj-104", 0 ]
				}

			}
, 			{
				"patchline" : 				{
					"destination" : [ "obj-25", 0 ],
					"source" : [ "obj-109", 0 ]
				}

			}
, 			{
				"patchline" : 				{
					"destination" : [ "obj-25", 0 ],
					"source" : [ "obj-11", 0 ]
				}

			}
, 			{
				"patchline" : 				{
					"destination" : [ "obj-25", 0 ],
					"source" : [ "obj-110", 0 ]
				}

			}
, 			{
				"patchline" : 				{
					"destination" : [ "obj-25", 0 ],
					"source" : [ "obj-119", 0 ]
				}

			}
, 			{
				"patchline" : 				{
					"destination" : [ "obj-25", 0 ],
					"source" : [ "obj-12", 0 ]
				}

			}
, 			{
				"patchline" : 				{
					"destination" : [ "obj-25", 0 ],
					"source" : [ "obj-13", 0 ]
				}

			}
, 			{
				"patchline" : 				{
					"destination" : [ "obj-11", 0 ],
					"source" : [ "obj-14", 0 ]
				}

			}
, 			{
				"patchline" : 				{
					"destination" : [ "obj-12", 0 ],
					"source" : [ "obj-15", 0 ]
				}

			}
, 			{
				"patchline" : 				{
					"destination" : [ "obj-110", 0 ],
					"source" : [ "obj-16", 0 ]
				}

			}
, 			{
				"patchline" : 				{
					"destination" : [ "obj-109", 0 ],
					"source" : [ "obj-17", 0 ]
				}

			}
, 			{
				"patchline" : 				{
					"destination" : [ "obj-13", 0 ],
					"source" : [ "obj-18", 0 ]
				}

			}
, 			{
				"patchline" : 				{
					"destination" : [ "obj-28", 0 ],
					"hidden" : 1,
					"source" : [ "obj-27", 0 ]
				}

			}
, 			{
				"patchline" : 				{
					"destination" : [ "obj-79", 0 ],
					"source" : [ "obj-29", 0 ]
				}

			}
, 			{
				"patchline" : 				{
					"destination" : [ "obj-27", 0 ],
					"hidden" : 1,
					"source" : [ "obj-30", 0 ]
				}

			}
, 			{
				"patchline" : 				{
					"destination" : [ "obj-50", 0 ],
					"source" : [ "obj-31", 0 ]
				}

			}
, 			{
				"patchline" : 				{
					"destination" : [ "obj-75", 0 ],
					"source" : [ "obj-32", 0 ]
				}

			}
, 			{
				"patchline" : 				{
					"destination" : [ "obj-84", 0 ],
					"order" : 5,
					"source" : [ "obj-35", 0 ]
				}

			}
, 			{
				"patchline" : 				{
					"destination" : [ "obj-85", 0 ],
					"order" : 4,
					"source" : [ "obj-35", 0 ]
				}

			}
, 			{
				"patchline" : 				{
					"destination" : [ "obj-86", 0 ],
					"order" : 3,
					"source" : [ "obj-35", 0 ]
				}

			}
, 			{
				"patchline" : 				{
					"destination" : [ "obj-87", 0 ],
					"order" : 2,
					"source" : [ "obj-35", 0 ]
				}

			}
, 			{
				"patchline" : 				{
					"destination" : [ "obj-88", 0 ],
					"order" : 1,
					"source" : [ "obj-35", 0 ]
				}

			}
, 			{
				"patchline" : 				{
					"destination" : [ "obj-89", 0 ],
					"order" : 0,
					"source" : [ "obj-35", 0 ]
				}

			}
, 			{
				"patchline" : 				{
					"destination" : [ "obj-51", 0 ],
					"midpoints" : [ 657.5, 143.0, 99.5, 143.0 ],
					"order" : 5,
					"source" : [ "obj-36", 0 ]
				}

			}
, 			{
				"patchline" : 				{
					"destination" : [ "obj-52", 0 ],
					"midpoints" : [ 657.5, 143.0, 201.5, 143.0 ],
					"order" : 4,
					"source" : [ "obj-36", 0 ]
				}

			}
, 			{
				"patchline" : 				{
					"destination" : [ "obj-53", 0 ],
					"midpoints" : [ 657.5, 143.0, 303.5, 143.0 ],
					"order" : 3,
					"source" : [ "obj-36", 0 ]
				}

			}
, 			{
				"patchline" : 				{
					"destination" : [ "obj-54", 0 ],
					"midpoints" : [ 657.5, 143.0, 405.5, 143.0 ],
					"order" : 2,
					"source" : [ "obj-36", 0 ]
				}

			}
, 			{
				"patchline" : 				{
					"destination" : [ "obj-55", 0 ],
					"midpoints" : [ 657.5, 143.0, 507.5, 143.0 ],
					"order" : 1,
					"source" : [ "obj-36", 0 ]
				}

			}
, 			{
				"patchline" : 				{
					"destination" : [ "obj-56", 0 ],
					"midpoints" : [ 657.5, 143.0, 609.5, 143.0 ],
					"order" : 0,
					"source" : [ "obj-36", 0 ]
				}

			}
, 			{
				"patchline" : 				{
					"destination" : [ "obj-35", 0 ],
					"source" : [ "obj-4", 0 ]
				}

			}
, 			{
				"patchline" : 				{
					"destination" : [ "obj-69", 0 ],
					"midpoints" : [ 46.5, 309.0, 556.5, 309.0 ],
					"order" : 0,
					"source" : [ "obj-50", 0 ]
				}

			}
, 			{
				"patchline" : 				{
					"destination" : [ "obj-70", 0 ],
					"midpoints" : [ 46.5, 309.0, 454.5, 309.0 ],
					"order" : 1,
					"source" : [ "obj-50", 0 ]
				}

			}
, 			{
				"patchline" : 				{
					"destination" : [ "obj-71", 0 ],
					"midpoints" : [ 46.5, 309.0, 352.5, 309.0 ],
					"order" : 2,
					"source" : [ "obj-50", 0 ]
				}

			}
, 			{
				"patchline" : 				{
					"destination" : [ "obj-72", 0 ],
					"midpoints" : [ 46.5, 309.0, 250.5, 309.0 ],
					"order" : 3,
					"source" : [ "obj-50", 0 ]
				}

			}
, 			{
				"patchline" : 				{
					"destination" : [ "obj-73", 0 ],
					"midpoints" : [ 46.5, 309.0, 148.5, 309.0 ],
					"order" : 4,
					"source" : [ "obj-50", 0 ]
				}

			}
, 			{
				"patchline" : 				{
					"destination" : [ "obj-74", 0 ],
					"order" : 6,
					"source" : [ "obj-50", 0 ]
				}

			}
, 			{
				"patchline" : 				{
					"destination" : [ "obj-8", 0 ],
					"hidden" : 1,
					"order" : 5,
					"source" : [ "obj-50", 0 ]
				}

			}
, 			{
				"patchline" : 				{
					"destination" : [ "obj-74", 3 ],
					"hidden" : 1,
					"midpoints" : [ 126.5, 176.0, 127.5, 176.0 ],
					"source" : [ "obj-51", 1 ]
				}

			}
, 			{
				"patchline" : 				{
					"destination" : [ "obj-73", 3 ],
					"hidden" : 1,
					"midpoints" : [ 228.5, 176.0, 229.5, 176.0 ],
					"source" : [ "obj-52", 1 ]
				}

			}
, 			{
				"patchline" : 				{
					"destination" : [ "obj-72", 3 ],
					"hidden" : 1,
					"midpoints" : [ 330.5, 176.0, 331.5, 176.0 ],
					"source" : [ "obj-53", 1 ]
				}

			}
, 			{
				"patchline" : 				{
					"destination" : [ "obj-71", 3 ],
					"hidden" : 1,
					"midpoints" : [ 432.5, 176.0, 433.5, 176.0 ],
					"source" : [ "obj-54", 1 ]
				}

			}
, 			{
				"patchline" : 				{
					"destination" : [ "obj-70", 3 ],
					"hidden" : 1,
					"midpoints" : [ 534.5, 176.0, 535.5, 176.0 ],
					"source" : [ "obj-55", 1 ]
				}

			}
, 			{
				"patchline" : 				{
					"destination" : [ "obj-69", 3 ],
					"hidden" : 1,
					"midpoints" : [ 636.5, 176.0, 637.5, 176.0 ],
					"source" : [ "obj-56", 1 ]
				}

			}
, 			{
				"patchline" : 				{
					"destination" : [ "obj-69", 1 ],
					"midpoints" : [ 621.5, 345.0, 583.5, 345.0 ],
					"source" : [ "obj-57", 0 ]
				}

			}
, 			{
				"patchline" : 				{
					"destination" : [ "obj-69", 2 ],
					"midpoints" : [ 607.5, 345.0, 610.5, 345.0 ],
					"source" : [ "obj-58", 0 ]
				}

			}
, 			{
				"patchline" : 				{
					"destination" : [ "obj-70", 2 ],
					"midpoints" : [ 505.5, 345.0, 508.5, 345.0 ],
					"source" : [ "obj-59", 0 ]
				}

			}
, 			{
				"patchline" : 				{
					"destination" : [ "obj-102", 0 ],
					"source" : [ "obj-6", 8 ]
				}

			}
, 			{
				"patchline" : 				{
					"destination" : [ "obj-103", 0 ],
					"source" : [ "obj-6", 7 ]
				}

			}
, 			{
				"patchline" : 				{
					"destination" : [ "obj-104", 0 ],
					"source" : [ "obj-6", 6 ]
				}

			}
, 			{
				"patchline" : 				{
					"destination" : [ "obj-14", 0 ],
					"source" : [ "obj-6", 5 ]
				}

			}
, 			{
				"patchline" : 				{
					"destination" : [ "obj-15", 0 ],
					"source" : [ "obj-6", 4 ]
				}

			}
, 			{
				"patchline" : 				{
					"destination" : [ "obj-16", 0 ],
					"source" : [ "obj-6", 3 ]
				}

			}
, 			{
				"patchline" : 				{
					"destination" : [ "obj-17", 0 ],
					"source" : [ "obj-6", 2 ]
				}

			}
, 			{
				"patchline" : 				{
					"destination" : [ "obj-18", 0 ],
					"source" : [ "obj-6", 1 ]
				}

			}
, 			{
				"patchline" : 				{
					"destination" : [ "obj-5", 0 ],
					"source" : [ "obj-6", 0 ]
				}

			}
, 			{
				"patchline" : 				{
					"destination" : [ "obj-70", 1 ],
					"midpoints" : [ 524.5, 345.0, 481.5, 345.0 ],
					"source" : [ "obj-60", 0 ]
				}

			}
, 			{
				"patchline" : 				{
					"destination" : [ "obj-72", 1 ],
					"midpoints" : [ 319.5, 345.0, 277.5, 345.0 ],
					"source" : [ "obj-61", 0 ]
				}

			}
, 			{
				"patchline" : 				{
					"destination" : [ "obj-72", 2 ],
					"midpoints" : [ 302.5, 345.0, 304.5, 345.0 ],
					"source" : [ "obj-62", 0 ]
				}

			}
, 			{
				"patchline" : 				{
					"destination" : [ "obj-71", 2 ],
					"midpoints" : [ 403.5, 345.0, 406.5, 345.0 ],
					"source" : [ "obj-63", 0 ]
				}

			}
, 			{
				"patchline" : 				{
					"destination" : [ "obj-71", 1 ],
					"midpoints" : [ 421.5, 345.0, 379.5, 345.0 ],
					"source" : [ "obj-64", 0 ]
				}

			}
, 			{
				"patchline" : 				{
					"destination" : [ "obj-73", 1 ],
					"midpoints" : [ 217.5, 345.0, 175.5, 345.0 ],
					"source" : [ "obj-65", 0 ]
				}

			}
, 			{
				"patchline" : 				{
					"destination" : [ "obj-73", 2 ],
					"midpoints" : [ 200.5, 345.0, 202.5, 345.0 ],
					"source" : [ "obj-66", 0 ]
				}

			}
, 			{
				"patchline" : 				{
					"destination" : [ "obj-74", 2 ],
					"midpoints" : [ 98.5, 345.0, 100.5, 345.0 ],
					"source" : [ "obj-67", 0 ]
				}

			}
, 			{
				"patchline" : 				{
					"destination" : [ "obj-74", 1 ],
					"midpoints" : [ 114.5, 345.0, 73.5, 345.0 ],
					"source" : [ "obj-68", 0 ]
				}

			}
, 			{
				"patchline" : 				{
					"destination" : [ "obj-76", 0 ],
					"midpoints" : [ 556.5, 370.0, 289.5, 370.0 ],
					"source" : [ "obj-69", 0 ]
				}

			}
, 			{
				"patchline" : 				{
					"destination" : [ "obj-3", 0 ],
					"order" : 1,
					"source" : [ "obj-7", 0 ]
				}

			}
, 			{
				"patchline" : 				{
					"destination" : [ "obj-6", 0 ],
					"order" : 0,
					"source" : [ "obj-7", 0 ]
				}

			}
, 			{
				"patchline" : 				{
					"destination" : [ "obj-76", 0 ],
					"midpoints" : [ 454.5, 370.0, 289.5, 370.0 ],
					"source" : [ "obj-70", 0 ]
				}

			}
, 			{
				"patchline" : 				{
					"destination" : [ "obj-76", 0 ],
					"midpoints" : [ 352.5, 370.0, 289.5, 370.0 ],
					"source" : [ "obj-71", 0 ]
				}

			}
, 			{
				"patchline" : 				{
					"destination" : [ "obj-76", 0 ],
					"midpoints" : [ 250.5, 370.0, 289.5, 370.0 ],
					"source" : [ "obj-72", 0 ]
				}

			}
, 			{
				"patchline" : 				{
					"destination" : [ "obj-76", 0 ],
					"midpoints" : [ 148.5, 370.0, 289.5, 370.0 ],
					"source" : [ "obj-73", 0 ]
				}

			}
, 			{
				"patchline" : 				{
					"destination" : [ "obj-76", 0 ],
					"midpoints" : [ 46.5, 370.0, 289.5, 370.0 ],
					"source" : [ "obj-74", 0 ]
				}

			}
, 			{
				"patchline" : 				{
					"destination" : [ "obj-76", 1 ],
					"source" : [ "obj-75", 0 ]
				}

			}
, 			{
				"patchline" : 				{
					"destination" : [ "obj-77", 1 ],
					"midpoints" : [ 289.5, 461.0, 303.5, 461.0 ],
					"order" : 0,
					"source" : [ "obj-76", 0 ]
				}

			}
, 			{
				"patchline" : 				{
					"destination" : [ "obj-77", 0 ],
					"order" : 1,
					"source" : [ "obj-76", 0 ]
				}

			}
, 			{
				"patchline" : 				{
					"destination" : [ "obj-36", 0 ],
					"source" : [ "obj-79", 0 ]
				}

			}
, 			{
				"patchline" : 				{
					"destination" : [ "obj-35", 0 ],
					"hidden" : 1,
					"source" : [ "obj-8", 0 ]
				}

			}
, 			{
				"patchline" : 				{
					"destination" : [ "obj-51", 0 ],
					"source" : [ "obj-84", 0 ]
				}

			}
, 			{
				"patchline" : 				{
					"destination" : [ "obj-52", 0 ],
					"source" : [ "obj-85", 0 ]
				}

			}
, 			{
				"patchline" : 				{
					"destination" : [ "obj-53", 0 ],
					"source" : [ "obj-86", 0 ]
				}

			}
, 			{
				"patchline" : 				{
					"destination" : [ "obj-54", 0 ],
					"source" : [ "obj-87", 0 ]
				}

			}
, 			{
				"patchline" : 				{
					"destination" : [ "obj-55", 0 ],
					"source" : [ "obj-88", 0 ]
				}

			}
, 			{
				"patchline" : 				{
					"destination" : [ "obj-56", 0 ],
					"source" : [ "obj-89", 0 ]
				}

			}
, 			{
				"patchline" : 				{
					"destination" : [ "obj-25", 0 ],
					"source" : [ "obj-9", 0 ]
				}

			}
 ],
		"dependency_cache" : [ 			{
				"name" : "partial~.maxpat",
				"bootpath" : "C74:/docs/tutorial-patchers/msp-tut",
				"type" : "JSON",
				"implicit" : 1
			}
 ],
		"autosave" : 0
	}

}
